<svg xmlns="http://www.w3.org/2000/svg" width="1920" height="599" viewBox="0 0 1920 599">
  <g id="Group_3335" data-name="Group 3335" transform="translate(0 -5436)">
    <path id="Path_2263" data-name="Path 2263" d="M0,0H1920V599H0Z" transform="translate(0 5436)" fill="#005de9"/>
    <g id="Group_370" data-name="Group 370" transform="translate(1300.999 -39.42)" opacity="0.7" style="mix-blend-mode: color-burn;isolation: isolate">
      <g id="Group_355" data-name="Group 355" transform="translate(80.409 5632.306)" style="mix-blend-mode: color-burn;isolation: isolate">
        <g id="Group_309" data-name="Group 309" transform="translate(0 38.492)">
          <g id="Group_304" data-name="Group 304" transform="translate(30.478 0)">
            <g id="Group_296" data-name="Group 296" transform="translate(0)">
              <g id="Group_295" data-name="Group 295" transform="translate(0)">
                <rect id="Rectangle_61" data-name="Rectangle 61" width="271.877" height="177.507" transform="translate(4.365 44.999) rotate(-5.127)" fill="#0b6770" opacity="0.19" style="mix-blend-mode: multiply;isolation: isolate"/>
                <rect id="Rectangle_62" data-name="Rectangle 62" width="270.418" height="188.265" transform="translate(0.56 30.405) rotate(-5.127)" fill="#f7f7f7"/>
                <rect id="Rectangle_63" data-name="Rectangle 63" width="270.418" height="22.545" transform="matrix(0.996, -0.089, 0.089, 0.996, 0, 24.166)" fill="#7181bf"/>
              </g>
            </g>
            <g id="Group_297" data-name="Group 297" transform="translate(6.682 29.11)" opacity="0.33">
              <path id="Path_2327" data-name="Path 2327" d="M677.532,627.543a2.981,2.981,0,1,1-3.235-2.7A2.981,2.981,0,0,1,677.532,627.543Z" transform="translate(-671.581 -622.548)" fill="#fff"/>
              <circle id="Ellipse_42" data-name="Ellipse 42" cx="2.981" cy="2.981" r="2.981" transform="matrix(0.97, -0.243, 0.243, 0.97, 8.528, 2.272)" fill="#fff"/>
              <circle id="Ellipse_43" data-name="Ellipse 43" cx="2.981" cy="2.981" r="2.981" transform="matrix(0.97, -0.243, 0.243, 0.97, 17.692, 1.45)" fill="#fff"/>
            </g>
            <line id="Line_8" data-name="Line 8" y1="8.556" x2="95.364" transform="translate(90.456 18.263)" fill="#fff" stroke="#fff" stroke-linecap="square" stroke-miterlimit="10" stroke-width="12.049" opacity="0.33"/>
            <g id="Group_302" data-name="Group 302" transform="translate(18.269 40.614)">
              <g id="Group_300" data-name="Group 300" transform="translate(145.165 0)">
                <g id="Group_298" data-name="Group 298" transform="translate(0)" opacity="0.33">
                  <line id="Line_9" data-name="Line 9" y1="7.807" x2="87.01" transform="translate(2.436 2.437)" fill="#fff"/>
                  <rect id="Rectangle_64" data-name="Rectangle 64" width="91.849" height="4.49" transform="translate(0 8.208) rotate(-5.127)" fill="#c1a8db"/>
                </g>
                <g id="Group_299" data-name="Group 299" transform="translate(46.8 10.89)" opacity="0.33">
                  <line id="Line_10" data-name="Line 10" y1="3.695" x2="41.181" transform="translate(2.437 2.437)" fill="#fff"/>
                  <rect id="Rectangle_65" data-name="Rectangle 65" width="45.837" height="4.49" transform="translate(0 4.096) rotate(-5.127)" fill="#c1a8db"/>
                </g>
              </g>
              <g id="Group_301" data-name="Group 301" transform="translate(0 17.518)" opacity="0.33">
                <line id="Line_11" data-name="Line 11" y1="3.314" x2="36.935" transform="translate(2.437 2.437)" fill="#fff"/>
                <rect id="Rectangle_66" data-name="Rectangle 66" width="41.573" height="4.49" transform="translate(0 3.715) rotate(-5.127)" fill="#c1a8db"/>
              </g>
            </g>
            <g id="Group_303" data-name="Group 303" transform="translate(21.43 70.377)">
              <path id="Path_2328" data-name="Path 2328" d="M805.912,953.453,746.327,958.8a5.046,5.046,0,0,1-5.476-4.574l-8.73-97.3a5.046,5.046,0,0,1,4.574-5.476L796.28,846.1a5.045,5.045,0,0,1,5.476,4.575l8.73,97.3A5.045,5.045,0,0,1,805.912,953.453Z" transform="translate(-732.1 -831.151)" fill="#e7e1ed"/>
              <path id="Path_2329" data-name="Path 2329" d="M1147.347,922.818l-59.586,5.346a5.045,5.045,0,0,1-5.476-4.574l-8.73-97.3a5.046,5.046,0,0,1,4.575-5.476l59.586-5.346a5.045,5.045,0,0,1,5.476,4.575l8.73,97.3A5.045,5.045,0,0,1,1147.347,922.818Z" transform="translate(-990.328 -807.981)" fill="#e7e1ed"/>
              <path id="Path_2330" data-name="Path 2330" d="M1488.782,892.183l-59.585,5.346a5.045,5.045,0,0,1-5.476-4.574l-8.73-97.3a5.045,5.045,0,0,1,4.574-5.476l59.585-5.346a5.045,5.045,0,0,1,5.476,4.574l8.73,97.3A5.046,5.046,0,0,1,1488.782,892.183Z" transform="translate(-1248.557 -784.812)" fill="#e7e1ed"/>
            </g>
          </g>
          <g id="Group_308" data-name="Group 308" transform="translate(0 0.507)">
            <g id="Group_305" data-name="Group 305" transform="translate(3.763 26.638)">
              <rect id="Rectangle_67" data-name="Rectangle 67" width="13.786" height="3.502" transform="translate(0 3.57) rotate(-15.008)" fill="#ff6fab"/>
            </g>
            <g id="Group_306" data-name="Group 306" transform="translate(0 7.94)">
              <rect id="Rectangle_68" data-name="Rectangle 68" width="3.502" height="20.494" transform="matrix(0.5, -0.866, 0.866, 0.5, 0, 3.033)" fill="#ff6fab"/>
            </g>
            <g id="Group_307" data-name="Group 307" transform="translate(21.077 0)">
              <rect id="Rectangle_69" data-name="Rectangle 69" width="3.502" height="13.786" transform="matrix(0.969, -0.248, 0.248, 0.969, 0, 0.87)" fill="#ff6fab"/>
            </g>
          </g>
        </g>
        <g id="Group_354" data-name="Group 354" transform="translate(74.984 0)">
          <g id="Group_333" data-name="Group 333" transform="translate(16.769 33.824)">
            <g id="Group_310" data-name="Group 310" transform="translate(0 8.433)">
              <path id="Path_2331" data-name="Path 2331" d="M1077.025,686.789l-166.13,14.774L895.6,526.405l166.116-14.931Z" transform="translate(-895.602 -511.474)" fill="#363636" opacity="0.11" style="mix-blend-mode: multiply;isolation: isolate"/>
            </g>
            <g id="Group_321" data-name="Group 321" transform="translate(13.201)">
              <g id="Group_311" data-name="Group 311">
                <line id="Line_12" data-name="Line 12" y1="3.056" x2="35.001" transform="translate(0 7.908)" fill="none" stroke="#d4d4d4" stroke-linecap="square" stroke-miterlimit="10" stroke-width="10.535"/>
                <line id="Line_13" data-name="Line 13" y1="2.914" x2="33.373" transform="translate(44.858 4.133)" fill="none" stroke="#d4d4d4" stroke-linecap="square" stroke-miterlimit="10" stroke-width="10.535"/>
                <line id="Line_14" data-name="Line 14" y1="4.133" x2="47.341" transform="translate(78.231)" fill="none" stroke="#d4d4d4" stroke-linecap="square" stroke-miterlimit="10" stroke-width="10.535"/>
              </g>
              <g id="Group_312" data-name="Group 312" transform="translate(1.331 15.248)">
                <line id="Line_15" data-name="Line 15" y1="4.316" x2="49.437" transform="translate(0 6.647)" fill="none" stroke="#d4d4d4" stroke-linecap="square" stroke-miterlimit="10" stroke-width="10.535"/>
                <line id="Line_16" data-name="Line 16" y1="4.023" x2="46.079" transform="translate(59.37 1.757)" fill="none" stroke="#d4d4d4" stroke-linecap="square" stroke-miterlimit="10" stroke-width="10.535"/>
                <line id="Line_17" data-name="Line 17" y1="1.053" x2="12.059" transform="translate(113.513)" fill="none" stroke="#d4d4d4" stroke-linecap="square" stroke-miterlimit="10" stroke-width="10.535"/>
              </g>
              <g id="Group_313" data-name="Group 313" transform="translate(2.663 30.496)">
                <line id="Line_18" data-name="Line 18" y1="4.131" x2="47.313" transform="translate(0 6.833)" fill="none" stroke="#d4d4d4" stroke-linecap="square" stroke-miterlimit="10" stroke-width="10.535"/>
                <line id="Line_19" data-name="Line 19" y1="0.962" x2="11.014" transform="translate(57.678 4.966)" fill="none" stroke="#d4d4d4" stroke-linecap="square" stroke-miterlimit="10" stroke-width="10.535"/>
                <line id="Line_20" data-name="Line 20" y1="5.265" x2="60.31" transform="translate(65.263)" fill="none" stroke="#d4d4d4" stroke-linecap="square" stroke-miterlimit="10" stroke-width="10.535"/>
              </g>
              <g id="Group_314" data-name="Group 314" transform="translate(3.994 45.744)">
                <line id="Line_21" data-name="Line 21" y1="3.056" x2="35.001" transform="translate(0 7.908)" fill="none" stroke="#d4d4d4" stroke-linecap="square" stroke-miterlimit="10" stroke-width="10.535"/>
                <line id="Line_22" data-name="Line 22" y1="4.177" x2="47.838" transform="translate(20.855 4.966)" fill="none" stroke="#d4d4d4" stroke-linecap="square" stroke-miterlimit="10" stroke-width="10.535"/>
                <line id="Line_23" data-name="Line 23" y1="4.133" x2="47.341" transform="translate(78.231)" fill="none" stroke="#d4d4d4" stroke-linecap="square" stroke-miterlimit="10" stroke-width="10.535"/>
              </g>
              <g id="Group_315" data-name="Group 315" transform="translate(5.325 60.992)">
                <line id="Line_24" data-name="Line 24" y1="1.528" x2="17.501" transform="translate(0 9.436)" fill="none" stroke="#d4d4d4" stroke-linecap="square" stroke-miterlimit="10" stroke-width="10.535"/>
                <line id="Line_25" data-name="Line 25" y1="2.521" x2="28.87" transform="translate(28.808 5.928)" fill="none" stroke="#d4d4d4" stroke-linecap="square" stroke-miterlimit="10" stroke-width="10.535"/>
                <line id="Line_26" data-name="Line 26" y1="5.108" x2="58.501" transform="translate(67.072)" fill="none" stroke="#d4d4d4" stroke-linecap="square" stroke-miterlimit="10" stroke-width="10.535"/>
              </g>
              <g id="Group_316" data-name="Group 316" transform="translate(6.656 76.24)">
                <line id="Line_27" data-name="Line 27" y1="3.056" x2="35.001" transform="translate(0 7.908)" fill="none" stroke="#d4d4d4" stroke-linecap="square" stroke-miterlimit="10" stroke-width="10.535"/>
                <line id="Line_28" data-name="Line 28" y1="3.452" x2="39.539" transform="translate(44.858 3.595)" fill="none" stroke="#d4d4d4" stroke-linecap="square" stroke-miterlimit="10" stroke-width="10.535"/>
                <line id="Line_29" data-name="Line 29" y1="4.133" x2="47.341" transform="translate(78.231)" fill="none" stroke="#d4d4d4" stroke-linecap="square" stroke-miterlimit="10" stroke-width="10.535"/>
              </g>
              <g id="Group_317" data-name="Group 317" transform="translate(7.988 91.489)">
                <line id="Line_30" data-name="Line 30" y1="3.056" x2="35.001" transform="translate(0 7.908)" fill="none" stroke="#d4d4d4" stroke-linecap="square" stroke-miterlimit="10" stroke-width="10.535"/>
                <line id="Line_31" data-name="Line 31" y1="2.692" x2="30.833" transform="translate(19.638 6.557)" fill="none" stroke="#d4d4d4" stroke-linecap="square" stroke-miterlimit="10" stroke-width="10.535"/>
                <line id="Line_32" data-name="Line 32" y1="5.845" x2="66.945" transform="translate(58.627)" fill="none" stroke="#d4d4d4" stroke-linecap="square" stroke-miterlimit="10" stroke-width="10.535"/>
              </g>
              <g id="Group_318" data-name="Group 318" transform="translate(9.319 106.737)">
                <line id="Line_33" data-name="Line 33" y1="3.056" x2="35.001" transform="translate(0 7.908)" fill="none" stroke="#d4d4d4" stroke-linecap="square" stroke-miterlimit="10" stroke-width="10.535"/>
                <line id="Line_34" data-name="Line 34" y1="3.279" x2="37.551" transform="translate(44.858 3.768)" fill="none" stroke="#d4d4d4" stroke-linecap="square" stroke-miterlimit="10" stroke-width="10.535"/>
                <line id="Line_35" data-name="Line 35" y1="4.133" x2="47.341" transform="translate(78.231)" fill="none" stroke="#d4d4d4" stroke-linecap="square" stroke-miterlimit="10" stroke-width="10.535"/>
              </g>
              <g id="Group_319" data-name="Group 319" transform="translate(10.65 121.985)">
                <line id="Line_36" data-name="Line 36" y1="3.056" x2="35.001" transform="translate(0 7.908)" fill="none" stroke="#d4d4d4" stroke-linecap="square" stroke-miterlimit="10" stroke-width="10.535"/>
                <line id="Line_37" data-name="Line 37" y1="4.012" x2="45.95" transform="translate(22.742 4.966)" fill="none" stroke="#d4d4d4" stroke-linecap="square" stroke-miterlimit="10" stroke-width="10.535"/>
                <line id="Line_38" data-name="Line 38" y1="4.133" x2="47.341" transform="translate(78.231)" fill="none" stroke="#d4d4d4" stroke-linecap="square" stroke-miterlimit="10" stroke-width="10.535"/>
              </g>
              <g id="Group_320" data-name="Group 320" transform="translate(11.981 141.001)">
                <line id="Line_39" data-name="Line 39" y1="3.056" x2="35.001" transform="translate(0 4.139)" fill="none" stroke="#d4d4d4" stroke-linecap="square" stroke-miterlimit="10" stroke-width="10.535"/>
                <line id="Line_40" data-name="Line 40" y1="3.279" x2="37.551" transform="translate(44.858)" fill="none" stroke="#d4d4d4" stroke-linecap="square" stroke-miterlimit="10" stroke-width="10.535"/>
              </g>
            </g>
            <g id="Group_332" data-name="Group 332" transform="translate(13.201)">
              <g id="Group_322" data-name="Group 322">
                <line id="Line_41" data-name="Line 41" y1="3.056" x2="35.001" transform="translate(0 7.908)" fill="none" stroke="#d4d4d4" stroke-linecap="square" stroke-miterlimit="10" stroke-width="10.535"/>
                <line id="Line_42" data-name="Line 42" y1="2.914" x2="33.373" transform="translate(44.858 4.133)" fill="none" stroke="#d4d4d4" stroke-linecap="square" stroke-miterlimit="10" stroke-width="10.535"/>
                <line id="Line_43" data-name="Line 43" y1="4.133" x2="47.341" transform="translate(78.231)" fill="none" stroke="#d4d4d4" stroke-linecap="square" stroke-miterlimit="10" stroke-width="10.535"/>
              </g>
              <g id="Group_323" data-name="Group 323" transform="translate(1.331 15.248)">
                <line id="Line_44" data-name="Line 44" y1="4.316" x2="49.437" transform="translate(0 6.647)" fill="none" stroke="#d4d4d4" stroke-linecap="square" stroke-miterlimit="10" stroke-width="10.535"/>
                <line id="Line_45" data-name="Line 45" y1="4.023" x2="46.079" transform="translate(59.37 1.757)" fill="none" stroke="#d4d4d4" stroke-linecap="square" stroke-miterlimit="10" stroke-width="10.535"/>
                <line id="Line_46" data-name="Line 46" y1="1.053" x2="12.059" transform="translate(113.513)" fill="none" stroke="#d4d4d4" stroke-linecap="square" stroke-miterlimit="10" stroke-width="10.535"/>
              </g>
              <g id="Group_324" data-name="Group 324" transform="translate(2.663 30.496)">
                <line id="Line_47" data-name="Line 47" y1="4.131" x2="47.313" transform="translate(0 6.833)" fill="none" stroke="#d4d4d4" stroke-linecap="square" stroke-miterlimit="10" stroke-width="10.535"/>
                <line id="Line_48" data-name="Line 48" y1="0.962" x2="11.014" transform="translate(57.678 4.966)" fill="none" stroke="#d4d4d4" stroke-linecap="square" stroke-miterlimit="10" stroke-width="10.535"/>
                <line id="Line_49" data-name="Line 49" y1="5.265" x2="60.31" transform="translate(65.263)" fill="none" stroke="#d4d4d4" stroke-linecap="square" stroke-miterlimit="10" stroke-width="10.535"/>
              </g>
              <g id="Group_325" data-name="Group 325" transform="translate(3.994 45.744)">
                <line id="Line_50" data-name="Line 50" y1="3.056" x2="35.001" transform="translate(0 7.908)" fill="none" stroke="#d4d4d4" stroke-linecap="square" stroke-miterlimit="10" stroke-width="10.535"/>
                <line id="Line_51" data-name="Line 51" y1="4.177" x2="47.838" transform="translate(20.855 4.966)" fill="none" stroke="#d4d4d4" stroke-linecap="square" stroke-miterlimit="10" stroke-width="10.535"/>
                <line id="Line_52" data-name="Line 52" y1="4.133" x2="47.341" transform="translate(78.231)" fill="none" stroke="#d4d4d4" stroke-linecap="square" stroke-miterlimit="10" stroke-width="10.535"/>
              </g>
              <g id="Group_326" data-name="Group 326" transform="translate(5.325 60.992)">
                <line id="Line_53" data-name="Line 53" y1="1.528" x2="17.501" transform="translate(0 9.436)" fill="none" stroke="#d4d4d4" stroke-linecap="square" stroke-miterlimit="10" stroke-width="10.535"/>
                <line id="Line_54" data-name="Line 54" y1="2.521" x2="28.87" transform="translate(28.808 5.928)" fill="none" stroke="#d4d4d4" stroke-linecap="square" stroke-miterlimit="10" stroke-width="10.535"/>
                <line id="Line_55" data-name="Line 55" y1="5.108" x2="58.501" transform="translate(67.072)" fill="none" stroke="#d4d4d4" stroke-linecap="square" stroke-miterlimit="10" stroke-width="10.535"/>
              </g>
              <g id="Group_327" data-name="Group 327" transform="translate(6.656 76.24)">
                <line id="Line_56" data-name="Line 56" y1="3.056" x2="35.001" transform="translate(0 7.908)" fill="none" stroke="#d4d4d4" stroke-linecap="square" stroke-miterlimit="10" stroke-width="10.535"/>
                <line id="Line_57" data-name="Line 57" y1="3.452" x2="39.539" transform="translate(44.858 3.595)" fill="none" stroke="#d4d4d4" stroke-linecap="square" stroke-miterlimit="10" stroke-width="10.535"/>
                <line id="Line_58" data-name="Line 58" y1="4.133" x2="47.341" transform="translate(78.231)" fill="none" stroke="#d4d4d4" stroke-linecap="square" stroke-miterlimit="10" stroke-width="10.535"/>
              </g>
              <g id="Group_328" data-name="Group 328" transform="translate(7.988 91.489)">
                <line id="Line_59" data-name="Line 59" y1="3.056" x2="35.001" transform="translate(0 7.908)" fill="none" stroke="#d4d4d4" stroke-linecap="square" stroke-miterlimit="10" stroke-width="10.535"/>
                <line id="Line_60" data-name="Line 60" y1="2.692" x2="30.833" transform="translate(19.638 6.557)" fill="none" stroke="#d4d4d4" stroke-linecap="square" stroke-miterlimit="10" stroke-width="10.535"/>
                <line id="Line_61" data-name="Line 61" y1="5.845" x2="66.945" transform="translate(58.627)" fill="none" stroke="#d4d4d4" stroke-linecap="square" stroke-miterlimit="10" stroke-width="10.535"/>
              </g>
              <g id="Group_329" data-name="Group 329" transform="translate(9.319 106.737)">
                <line id="Line_62" data-name="Line 62" y1="3.056" x2="35.001" transform="translate(0 7.908)" fill="none" stroke="#d4d4d4" stroke-linecap="square" stroke-miterlimit="10" stroke-width="10.535"/>
                <line id="Line_63" data-name="Line 63" y1="3.279" x2="37.551" transform="translate(44.858 3.768)" fill="none" stroke="#d4d4d4" stroke-linecap="square" stroke-miterlimit="10" stroke-width="10.535"/>
                <line id="Line_64" data-name="Line 64" y1="4.133" x2="47.341" transform="translate(78.231)" fill="none" stroke="#d4d4d4" stroke-linecap="square" stroke-miterlimit="10" stroke-width="10.535"/>
              </g>
              <g id="Group_330" data-name="Group 330" transform="translate(10.65 121.985)">
                <line id="Line_65" data-name="Line 65" y1="3.056" x2="35.001" transform="translate(0 7.908)" fill="none" stroke="#d4d4d4" stroke-linecap="square" stroke-miterlimit="10" stroke-width="10.535"/>
                <line id="Line_66" data-name="Line 66" y1="4.012" x2="45.95" transform="translate(22.742 4.966)" fill="none" stroke="#d4d4d4" stroke-linecap="square" stroke-miterlimit="10" stroke-width="10.535"/>
                <line id="Line_67" data-name="Line 67" y1="4.133" x2="47.341" transform="translate(78.231)" fill="none" stroke="#d4d4d4" stroke-linecap="square" stroke-miterlimit="10" stroke-width="10.535"/>
              </g>
              <g id="Group_331" data-name="Group 331" transform="translate(11.981 141.001)">
                <line id="Line_68" data-name="Line 68" y1="3.056" x2="35.001" transform="translate(0 4.139)" fill="none" stroke="#d4d4d4" stroke-linecap="square" stroke-miterlimit="10" stroke-width="10.535"/>
                <line id="Line_69" data-name="Line 69" y1="3.279" x2="37.551" transform="translate(44.858)" fill="none" stroke="#d4d4d4" stroke-linecap="square" stroke-miterlimit="10" stroke-width="10.535"/>
              </g>
            </g>
          </g>
          <g id="Group_353" data-name="Group 353" transform="translate(0 0)">
            <g id="Group_334" data-name="Group 334" transform="translate(0)">
              <rect id="Rectangle_70" data-name="Rectangle 70" width="168.987" height="207.689" transform="translate(0 15.201) rotate(-5.161)" fill="#f5f5f5"/>
            </g>
            <g id="Group_352" data-name="Group 352" transform="translate(27.854 43.195)">
              <g id="Group_339" data-name="Group 339" transform="translate(0 0)">
                <g id="Group_335" data-name="Group 335" transform="translate(0 4.333)">
                  <path id="Path_2332" data-name="Path 2332" d="M954.964,559.779,941.09,548.2l3.254-3.9,9.681,8.078L967.883,533.1l4.124,2.964Z" transform="translate(-941.09 -533.1)" fill="#05bd6b"/>
                </g>
                <g id="Group_338" data-name="Group 338" transform="translate(46.224)">
                  <g id="Group_336" data-name="Group 336" transform="translate(0)">
                    <rect id="Rectangle_71" data-name="Rectangle 71" width="73.735" height="5.079" transform="matrix(0.996, -0.09, 0.09, 0.996, 0, 6.633)" fill="#d4d4d4"/>
                  </g>
                  <g id="Group_337" data-name="Group 337" transform="translate(1.101 13.842)">
                    <rect id="Rectangle_72" data-name="Rectangle 72" width="55.335" height="5.079" transform="matrix(0.996, -0.09, 0.09, 0.996, 0, 4.978)" fill="#d4d4d4"/>
                  </g>
                </g>
              </g>
              <g id="Group_346" data-name="Group 346" transform="translate(5.101 52.706)">
                <g id="Group_342" data-name="Group 342" transform="translate(0 5.436)">
                  <g id="Group_340" data-name="Group 340" transform="translate(2.733 0)">
                    <rect id="Rectangle_73" data-name="Rectangle 73" width="29.014" height="5.079" transform="translate(0 23.56) rotate(-54.295)" fill="#ed295c"/>
                  </g>
                  <g id="Group_341" data-name="Group 341" transform="translate(0 2.733)">
                    <rect id="Rectangle_74" data-name="Rectangle 74" width="5.079" height="29.014" transform="translate(0 4.124) rotate(-54.294)" fill="#ed295c"/>
                  </g>
                </g>
                <g id="Group_345" data-name="Group 345" transform="translate(45.914 0)">
                  <g id="Group_343" data-name="Group 343" transform="translate(0)">
                    <rect id="Rectangle_75" data-name="Rectangle 75" width="74.648" height="5.079" transform="translate(0 7.135) rotate(-5.485)" fill="#d4d4d4"/>
                  </g>
                  <g id="Group_344" data-name="Group 344" transform="translate(1.114 15.561)">
                    <rect id="Rectangle_76" data-name="Rectangle 76" width="41.632" height="5.079" transform="matrix(0.996, -0.09, 0.09, 0.996, 0, 3.745)" fill="#d4d4d4"/>
                  </g>
                </g>
              </g>
              <g id="Group_351" data-name="Group 351" transform="translate(9.609 110.718)">
                <g id="Group_347" data-name="Group 347">
                  <path id="Path_2333" data-name="Path 2333" d="M994.392,996.326l-13.874-11.575,3.254-3.9,9.681,8.078,13.858-19.281,4.125,2.964Z" transform="translate(-980.519 -969.647)" fill="#05bd6b"/>
                </g>
                <g id="Group_350" data-name="Group 350" transform="translate(46.224 0.42)">
                  <g id="Group_348" data-name="Group 348" transform="translate(0 0)">
                    <rect id="Rectangle_77" data-name="Rectangle 77" width="20.9" height="5.079" transform="matrix(0.996, -0.09, 0.09, 0.996, 0, 1.88)" fill="#d4d4d4"/>
                  </g>
                  <g id="Group_349" data-name="Group 349" transform="translate(1.101 8.246)">
                    <rect id="Rectangle_78" data-name="Rectangle 78" width="64.702" height="5.079" transform="matrix(0.996, -0.09, 0.09, 0.996, 0, 5.821)" fill="#d4d4d4"/>
                  </g>
                </g>
              </g>
            </g>
          </g>
        </g>
      </g>
      <g id="Group_356" data-name="Group 356" transform="translate(145.982 5882.572)" style="mix-blend-mode: color-burn;isolation: isolate">
        <path id="Path_2334" data-name="Path 2334" d="M954.444,1559.382l-16.844-6.325,16.844-6.325H1140.76v12.649Z" transform="translate(-937.6 -1539.749)" fill="#36367d" opacity="0.15" style="mix-blend-mode: multiply;isolation: isolate"/>
        <rect id="Rectangle_79" data-name="Rectangle 79" width="12.649" height="186.316" transform="translate(206.657 0) rotate(90)" fill="#3d5473"/>
        <path id="Path_2335" data-name="Path 2335" d="M1007.828,1550.782v-6.325h186.316v6.325Z" transform="translate(-987.487 -1538.132)" fill="#081b33" opacity="0.17" style="mix-blend-mode: multiply;isolation: isolate"/>
        <path id="Path_2336" data-name="Path 2336" d="M949.807,1531.463V1530.1l16.8-4.787v10.934Z" transform="translate(-946.271 -1524.536)" fill="#fff"/>
        <path id="Path_2337" data-name="Path 2337" d="M942.567,1540.231h0a.3.3,0,0,1,.236-.268l4.727-1.347v3.229L942.8,1540.5A.3.3,0,0,1,942.567,1540.231Z" transform="translate(-941.128 -1533.984)" fill="#42474d"/>
      </g>
    </g>
    <g id="Group_369" data-name="Group 369" transform="translate(494.053 4602.03)" opacity="0.498" style="mix-blend-mode: color-burn;isolation: isolate">
      <g id="Group_359" data-name="Group 359" transform="translate(302.689 878.21)">
        <line id="Line_70" data-name="Line 70" x1="2.259" y1="7.118" transform="translate(0 2.36)" fill="none" stroke="#fff" stroke-miterlimit="10" stroke-width="4.641"/>
        <line id="Line_71" data-name="Line 71" y1="9.857" x2="5.107" transform="translate(6.955)" fill="none" stroke="#fff" stroke-miterlimit="10" stroke-width="4.641"/>
        <line id="Line_72" data-name="Line 72" y1="2.182" x2="7.142" transform="translate(10.341 11.628)" fill="none" stroke="#fff" stroke-miterlimit="10" stroke-width="4.641"/>
      </g>
      <g id="Group_368" data-name="Group 368" transform="translate(202.775 894.017)">
        <g id="Group_363" data-name="Group 363" transform="translate(6.138 0)">
          <path id="Path_2338" data-name="Path 2338" d="M388.146,1106.157l-89.024,28.725a6,6,0,0,1-7.547-3.865L236.808,961.281a6,6,0,0,1,3.865-7.547L329.7,925.01a6,6,0,0,1,7.547,3.865l54.768,169.736A6,6,0,0,1,388.146,1106.157Z" transform="translate(-228.862 -921.514)" fill="#0b6770" opacity="0.19" style="mix-blend-mode: multiply;isolation: isolate"/>
          <g id="Group_361" data-name="Group 361">
            <g id="Group_360" data-name="Group 360">
              <path id="Path_2339" data-name="Path 2339" d="M369.42,1098.32,280.4,1127.045a6,6,0,0,1-7.547-3.865L218.082,953.444a6,6,0,0,1,3.865-7.547l89.024-28.725a6,6,0,0,1,7.547,3.865l54.768,169.736A6,6,0,0,1,369.42,1098.32Z" transform="translate(-217.79 -916.881)" fill="#48404e"/>
            </g>
          </g>
          <path id="Path_2340" data-name="Path 2340" d="M374.654,1101.352l-87.639,28.278a1.788,1.788,0,0,1-2.251-1.153L230.577,960.541a1.788,1.788,0,0,1,1.152-2.251l87.64-28.278a1.788,1.788,0,0,1,2.251,1.152L375.807,1099.1A1.789,1.789,0,0,1,374.654,1101.352Z" transform="translate(-225.299 -924.593)" fill="#48404e"/>
          <g id="Group_362" data-name="Group 362" transform="translate(11.954 12.514)" opacity="0.36">
            <line id="Line_73" data-name="Line 73" y1="6.153" x2="19.069" transform="translate(0 19.729)" fill="#f06698" stroke="#fff" stroke-linecap="round" stroke-miterlimit="10" stroke-width="4.638"/>
            <line id="Line_74" data-name="Line 74" y1="13.592" x2="42.123" transform="translate(70.325 164.786)" fill="#f06698" stroke="#fff" stroke-linecap="round" stroke-miterlimit="10" stroke-width="4.638"/>
            <line id="Line_75" data-name="Line 75" y1="3.076" x2="9.534" transform="translate(70.679)" fill="#f06698" stroke="#fff" stroke-linecap="round" stroke-miterlimit="10" stroke-width="4.638"/>
            <line id="Line_76" data-name="Line 76" y1="1.226" x2="3.798" transform="translate(63.776 4.078)" fill="#f06698" stroke="#fff" stroke-linecap="round" stroke-miterlimit="10" stroke-width="4.638"/>
          </g>
        </g>
        <g id="Group_365" data-name="Group 365" transform="translate(0 43.156)">
          <path id="Path_2341" data-name="Path 2341" d="M308.67,1030.648l-87.57,28.318a3.863,3.863,0,0,0-2.486,4.864l9.057,28.008a3.863,3.863,0,0,0,4.863,2.487l69.02-22.32,9.867,3.567-1.785-6.181,10.467-3.385a3.862,3.862,0,0,0,2.486-4.863l-9.057-28.008A3.862,3.862,0,0,0,308.67,1030.648Z" transform="translate(-212.028 -1027.189)" fill="#363636" opacity="0.19" style="mix-blend-mode: multiply;isolation: isolate"/>
          <path id="Path_2342" data-name="Path 2342" d="M293.02,1022.646l-87.57,28.318a3.863,3.863,0,0,0-2.486,4.864l9.057,28.008a3.862,3.862,0,0,0,4.863,2.487L285.9,1064l9.867,3.567-1.785-6.181L304.454,1058a3.863,3.863,0,0,0,2.486-4.863l-9.057-28.008A3.863,3.863,0,0,0,293.02,1022.646Z" transform="translate(-202.775 -1022.458)" fill="#f5f5f5"/>
          <path id="Path_2343" data-name="Path 2343" d="M241.324,1112.435l7.549,3.86,6.181-14.6" transform="translate(-225.567 -1069.306)" fill="none" stroke="#05bd7a" stroke-linecap="square" stroke-miterlimit="10" stroke-width="4"/>
          <g id="Group_364" data-name="Group 364" transform="translate(41.063 15.558)">
            <line id="Line_77" data-name="Line 77" y1="15.068" x2="46.594" fill="none" stroke="#d4d4d4" stroke-linecap="square" stroke-miterlimit="10" stroke-width="2"/>
            <line id="Line_78" data-name="Line 78" y1="5.433" x2="16.801" transform="translate(2.494 17.346)" fill="none" stroke="#d4d4d4" stroke-linecap="square" stroke-miterlimit="10" stroke-width="2"/>
          </g>
        </g>
        <g id="Group_367" data-name="Group 367" transform="translate(17.177 95.22)">
          <path id="Path_2344" data-name="Path 2344" d="M350.694,1158.02l-87.57,28.319a3.862,3.862,0,0,0-2.486,4.863l9.057,28.008a3.862,3.862,0,0,0,4.863,2.486l69.02-22.32,9.867,3.567-1.784-6.181,10.467-3.385a3.862,3.862,0,0,0,2.486-4.863l-9.057-28.008A3.862,3.862,0,0,0,350.694,1158.02Z" transform="translate(-254.052 -1154.561)" fill="#363636" opacity="0.19" style="mix-blend-mode: multiply;isolation: isolate"/>
          <path id="Path_2345" data-name="Path 2345" d="M335.043,1150.018l-87.57,28.318a3.863,3.863,0,0,0-2.487,4.864l9.058,28.008a3.862,3.862,0,0,0,4.863,2.486l69.02-22.32,9.867,3.567-1.784-6.181,10.467-3.385a3.863,3.863,0,0,0,2.486-4.863l-9.057-28.008A3.862,3.862,0,0,0,335.043,1150.018Z" transform="translate(-244.798 -1149.83)" fill="#f5f5f5"/>
          <path id="Path_2346" data-name="Path 2346" d="M283.348,1239.807l7.549,3.859,6.181-14.6" transform="translate(-267.59 -1196.678)" fill="none" stroke="#05bd7a" stroke-linecap="square" stroke-miterlimit="10" stroke-width="4"/>
          <g id="Group_366" data-name="Group 366" transform="translate(41.063 15.558)">
            <line id="Line_79" data-name="Line 79" y1="15.068" x2="46.594" fill="none" stroke="#d4d4d4" stroke-linecap="square" stroke-miterlimit="10" stroke-width="2"/>
            <line id="Line_80" data-name="Line 80" y1="5.433" x2="16.801" transform="translate(2.494 17.347)" fill="none" stroke="#d4d4d4" stroke-linecap="square" stroke-miterlimit="10" stroke-width="2"/>
          </g>
        </g>
      </g>
    </g>
    <g id="Group_372" data-name="Group 372" transform="translate(-1035.773 4589.937)" opacity="0.5" style="mix-blend-mode: color-burn;isolation: isolate">
      <g id="Group_371" data-name="Group 371" transform="translate(2024.723 1084.568)">
        <rect id="Rectangle_80" data-name="Rectangle 80" width="4.631" height="8.312" transform="translate(34.322 0.822) rotate(41.618)" fill="#fff"/>
        <path id="Path_2347" data-name="Path 2347" d="M2188.3,1175.021h0l39.706-44.693,1.6,1.425-38.281,43.09A2.145,2.145,0,0,1,2188.3,1175.021Z" transform="translate(-2188.301 -1130.328)" fill="#177fff"/>
      </g>
      <path id="Path_2348" data-name="Path 2348" d="M1992.277,1200.31l-12.8,5.5,3.951-13.355,88.7-99.838a5.916,5.916,0,0,1,8.352-.494h0a5.916,5.916,0,0,1,.494,8.352Z" transform="translate(-11.544 -16.855)" fill="#36367d" opacity="0.15" style="mix-blend-mode: multiply;isolation: isolate"/>
      <path id="Path_2349" data-name="Path 2349" d="M1991.288,1177.16l-8.846-7.859,88.7-99.838a5.916,5.916,0,0,1,8.352-.494h0a5.916,5.916,0,0,1,.494,8.352Z" transform="translate(-13.7 0)" fill="#285bd4"/>
      <path id="Path_2350" data-name="Path 2350" d="M2003.129,1181.158l-4.423-3.929,92.625-104.261h0a5.916,5.916,0,0,1,.493,8.352Z" transform="translate(-25.541 -3.998)" fill="#175196" opacity="0.17" style="mix-blend-mode: multiply;isolation: isolate"/>
      <rect id="Rectangle_81" data-name="Rectangle 81" width="11.832" height="2.934" transform="matrix(0.748, 0.664, -0.664, 0.748, 2023.143, 1108.066)" fill="#fff"/>
      <path id="Path_2351" data-name="Path 2351" d="M1966.99,1456.925l-.95-.844,5.006-12.378,7.646,6.793Z" transform="translate(-1.758 -273.916)" fill="#fff"/>
      <path id="Path_2352" data-name="Path 2352" d="M1966.99,1467.955l-.95-.844,9.644-8.258,3.009,2.673Z" transform="translate(-1.758 -284.946)" fill="#36367d" opacity="0.09" style="mix-blend-mode: multiply;isolation: isolate"/>
      <path id="Path_2353" data-name="Path 2353" d="M1963.714,1484.967h0a.267.267,0,0,1-.07-.3l1.408-3.482,2.258,2.006-3.292,1.809A.266.266,0,0,1,1963.714,1484.967Z" transform="translate(0 -301.206)" fill="#177fff"/>
    </g>
    <g id="Group_382" data-name="Group 382" transform="translate(400.398 5321.197)">
      <path id="Path_2355" data-name="Path 2355" d="M1874.3,1413.609l8.043-6.229a3.462,3.462,0,0,1,4.24,0l5.923,4.587a3.463,3.463,0,0,0,4.24,0l5.923-4.587a3.462,3.462,0,0,1,4.24,0l5.923,4.587a3.462,3.462,0,0,0,4.24,0l5.923-4.587a3.462,3.462,0,0,1,4.24,0l5.911,4.578a3.462,3.462,0,0,0,4.254-.011l7.929-6.209" transform="translate(-1846.845 -1031.015)" fill="none" stroke="#e2e2ff" stroke-miterlimit="10" stroke-width="1"/>
      <circle id="Ellipse_44" data-name="Ellipse 44" cx="6.394" cy="6.394" r="6.394" transform="translate(256.127 272.427) rotate(-80.732)" fill="none" stroke="#e2e2ff" stroke-miterlimit="10" stroke-width="1"/>
      <circle id="Ellipse_45" data-name="Ellipse 45" cx="5.716" cy="5.716" r="5.716" transform="matrix(0.29, -0.957, 0.957, 0.29, 445.39, 411.869)" fill="none" stroke="#e2e2ff" stroke-miterlimit="10" stroke-width="1"/>
      <path id="Path_2357" data-name="Path 2357" d="M195.776,1297.022a4.776,4.776,0,1,1-4.776-4.776A4.776,4.776,0,0,1,195.776,1297.022Z" transform="translate(0 -702.154)" fill="none" stroke="#e2e2ff" stroke-miterlimit="10" stroke-width="1"/>
      <circle id="Ellipse_46" data-name="Ellipse 46" cx="3.197" cy="3.197" r="3.197" transform="translate(943.325 368.579) rotate(-22.5)" fill="none" stroke="#e2e2ff" stroke-miterlimit="10" stroke-width="1"/>
      <circle id="Ellipse_47" data-name="Ellipse 47" cx="3.729" cy="3.729" r="3.729" transform="matrix(0.231, -0.973, 0.973, 0.231, 765.751, 198.247)" fill="none" stroke="#e2e2ff" stroke-miterlimit="10" stroke-width="1"/>
      <g id="Group_375" data-name="Group 375" transform="translate(452.298 156.303)">
        <g id="Group_373" data-name="Group 373">
          <line id="Line_81" data-name="Line 81" y1="5.466" x2="5.466" transform="translate(0 9.75)" fill="none" stroke="#e2e2ff" stroke-miterlimit="10" stroke-width="1"/>
          <line id="Line_82" data-name="Line 82" y1="5.466" x2="5.466" transform="translate(9.75)" fill="none" stroke="#e2e2ff" stroke-miterlimit="10" stroke-width="1"/>
        </g>
        <g id="Group_374" data-name="Group 374">
          <line id="Line_83" data-name="Line 83" x2="5.466" y2="5.466" fill="none" stroke="#e2e2ff" stroke-miterlimit="10" stroke-width="1"/>
          <line id="Line_84" data-name="Line 84" x2="5.466" y2="5.466" transform="translate(9.75 9.75)" fill="none" stroke="#e2e2ff" stroke-miterlimit="10" stroke-width="1"/>
        </g>
      </g>
      <g id="Group_378" data-name="Group 378" transform="translate(599.781 489.12)">
        <g id="Group_376" data-name="Group 376">
          <line id="Line_85" data-name="Line 85" y1="5.466" x2="5.466" transform="translate(0 9.75)" fill="none" stroke="#e2e2ff" stroke-miterlimit="10" stroke-width="1"/>
          <line id="Line_86" data-name="Line 86" y1="5.466" x2="5.466" transform="translate(9.75)" fill="none" stroke="#e2e2ff" stroke-miterlimit="10" stroke-width="1"/>
        </g>
        <g id="Group_377" data-name="Group 377">
          <line id="Line_87" data-name="Line 87" x2="5.466" y2="5.466" fill="none" stroke="#e2e2ff" stroke-miterlimit="10" stroke-width="1"/>
          <line id="Line_88" data-name="Line 88" x2="5.466" y2="5.466" transform="translate(9.75 9.75)" fill="none" stroke="#e2e2ff" stroke-miterlimit="10" stroke-width="1"/>
        </g>
      </g>
      <g id="Group_381" data-name="Group 381" transform="translate(795.003 355.709)">
        <g id="Group_379" data-name="Group 379">
          <line id="Line_89" data-name="Line 89" y1="5.466" x2="5.466" transform="translate(0 9.75)" fill="none" stroke="#e2e2ff" stroke-miterlimit="10" stroke-width="1"/>
          <line id="Line_90" data-name="Line 90" y1="5.466" x2="5.466" transform="translate(9.75)" fill="none" stroke="#e2e2ff" stroke-miterlimit="10" stroke-width="1"/>
        </g>
        <g id="Group_380" data-name="Group 380">
          <line id="Line_91" data-name="Line 91" x2="5.466" y2="5.466" fill="none" stroke="#e2e2ff" stroke-miterlimit="10" stroke-width="1"/>
          <line id="Line_92" data-name="Line 92" x2="5.466" y2="5.466" transform="translate(9.75 9.75)" fill="none" stroke="#e2e2ff" stroke-miterlimit="10" stroke-width="1"/>
        </g>
      </g>
    </g>
  </g>
</svg>
