<svg xmlns="http://www.w3.org/2000/svg" width="499.385" height="477.85" viewBox="0 0 499.385 477.85">
  <g id="about-article" transform="translate(-64.069 -128.836)">
    <ellipse id="Ellipse_203" data-name="Ellipse 203" cx="33.754" cy="3.175" rx="33.754" ry="3.175" transform="translate(136.403 600.336)" fill="#8982bc" opacity="0.17"/>
    <path id="Path_3149" data-name="Path 3149" d="M131.576,434.661c0,1.754-15.113,3.175-33.753,3.175s-33.753-1.421-33.753-3.175,15.111-3.175,33.753-3.175S131.576,432.907,131.576,434.661Z" transform="translate(0 108.516)" fill="#8982bc" opacity="0.17"/>
    <ellipse id="Ellipse_204" data-name="Ellipse 204" cx="41.83" cy="3.175" rx="41.83" ry="3.175" transform="translate(479.794 545.44)" fill="#8982bc" opacity="0.17"/>
    <path id="Path_3150" data-name="Path 3150" d="M255.689,433.736c0,1.534-13.253,2.777-29.6,2.777s-29.6-1.243-29.6-2.777,13.253-2.777,29.6-2.777S255.689,432.2,255.689,433.736Z" transform="translate(47.48 108.327)" fill="#8982bc" opacity="0.17"/>
    <g id="Group_2953" data-name="Group 2953" transform="translate(132.899 192.693)">
      <path id="Path_3151" data-name="Path 3151" d="M116.045,176.376V522.241H483.528V187.82Z" transform="translate(-114.262 -175.647)" fill="#f4f4f4"/>
      <path id="Path_3152" data-name="Path 3152" d="M189.876,363.674l-5.5,93.789,184.515-2.943Z" transform="translate(-89.761 -108.491)" fill="#8982bc" opacity="0.18"/>
      <path id="Path_3153" data-name="Path 3153" d="M190.869,459.705l-2.444-93.467,175.961-9.717,3.055,100.563Z" transform="translate(-88.31 -111.055)" fill="#cecdcd"/>
      <path id="Path_3154" data-name="Path 3154" d="M234.883,269.347l2.068,87.246,181.625-1.458-8.4-102.011Z" transform="translate(-71.653 -148.129)" fill="#8982bc" opacity="0.18"/>
      <path id="Path_3155" data-name="Path 3155" d="M114.733,196.734,484,199.339V184.357l-369.266-8.517Z" transform="translate(-114.733 -175.839)" fill="#eff3fb"/>
      <path id="Path_3156" data-name="Path 3156" d="M114.733,191.219v30.365H484V193.825Z" transform="translate(-114.733 -170.325)" fill="#06205b"/>
      <circle id="Ellipse_205" data-name="Ellipse 205" cx="10.748" cy="10.748" r="10.748" transform="translate(23.104 44.078) rotate(-76.763)" fill="#fff"/>
      <path id="Path_3157" data-name="Path 3157" d="M158.947,199.7v7.33H212.7V199.7" transform="translate(-98.88 -167.285)" fill="#fff"/>
      <path id="Path_3158" data-name="Path 3158" d="M220.592,195.956v19.495H356.809V197.522Z" transform="translate(-76.777 -168.626)" fill="#fff"/>
      <text id="Text" transform="translate(152.901 39.203)" fill="#4d7eb7" font-size="7" font-family="SegoeUI, Segoe UI"><tspan x="0" y="0">Text</tspan></text>
      <g id="Group_2952" data-name="Group 2952" transform="translate(10.263 9.507)">
        <circle id="Ellipse_206" data-name="Ellipse 206" cx="2.243" cy="2.243" r="2.243" transform="translate(0 0.001)" fill="#fc846d"/>
        <circle id="Ellipse_207" data-name="Ellipse 207" cx="2.243" cy="2.243" r="2.243" transform="translate(10.612 0.001)" fill="#f9d452"/>
        <path id="Path_3159" data-name="Path 3159" d="M142.436,185.08a2.242,2.242,0,1,1-2.242-2.243A2.242,2.242,0,0,1,142.436,185.08Z" transform="translate(-116.671 -182.837)" fill="#57be8b"/>
      </g>
      <rect id="Rectangle_656" data-name="Rectangle 656" width="4.921" height="61.96" transform="translate(31.325 75.313)" fill="#c4b9ff"/>
      <path id="Path_3160" data-name="Path 3160" d="M149.164,234.764v5.2h67.043l.833-5.9Z" transform="translate(-102.387 -154.962)" fill="#cecdcd"/>
      <path id="Path_3161" data-name="Path 3161" d="M232.539,229.732v5.2H419.625l2.324-5.9Z" transform="translate(-72.493 -156.766)" fill="#cecdcd"/>
      <path id="Path_3162" data-name="Path 3162" d="M232.539,333.215v5.2H419.625l2.324-5.9Z" transform="translate(-72.493 -119.663)" fill="#cecdcd"/>
      <path id="Path_3163" data-name="Path 3163" d="M232.539,242.822v5.2h71.185l.884-5.9Z" transform="translate(-72.493 -152.073)" fill="#cecdcd"/>
      <path id="Path_3164" data-name="Path 3164" d="M232.539,346.473v5.2h71.185l.884-5.9Z" transform="translate(-72.493 -114.908)" fill="#cecdcd"/>
      <path id="Path_3165" data-name="Path 3165" d="M149.593,246.467v5.2h67.043l.251-4.737Z" transform="translate(-102.234 -150.515)" fill="#cecdcd"/>
      <path id="Path_3166" data-name="Path 3166" d="M149.378,259.088v5.2h67.043l.251-4.736Z" transform="translate(-102.311 -145.99)" fill="#cecdcd"/>
      <path id="Path_3167" data-name="Path 3167" d="M149.378,273.054v5.2h67.043l.251-4.736Z" transform="translate(-102.311 -140.983)" fill="#cecdcd"/>
      <path id="Path_3168" data-name="Path 3168" d="M234.883,265.765l7.6,92.325,175.441-14.444-7.747-94.1Z" transform="translate(-71.653 -149.413)" fill="#cecdcd"/>
    </g>
    <g id="Group_2954" data-name="Group 2954" transform="translate(450.6 376.633)" opacity="0.997">
      <path id="Path_3169" data-name="Path 3169" d="M351.746,324.058a34.387,34.387,0,0,1-3.058-9.469,3.924,3.924,0,0,1-.034-1.585,2.685,2.685,0,0,1,2.974-1.746,5.53,5.53,0,0,1,3.172,1.9c.857.921,1.573,1.973,2.5,2.827a12.271,12.271,0,0,0,2.084,1.5,24.869,24.869,0,0,0,5.338,2.377,7.48,7.48,0,0,1,3.3,1.557,9.166,9.166,0,0,1-4.055.493,51.869,51.869,0,0,0-12.616,1.34,1.269,1.269,0,0,1,1.221-.24" transform="translate(-348.585 -311.233)" fill="#ededed"/>
    </g>
    <g id="Group_2955" data-name="Group 2955" transform="translate(463.645 327.583)">
      <path id="Path_3170" data-name="Path 3170" d="M373.1,314.757c-3.411-1.7-4.364-6.006-5.252-9.712a67.269,67.269,0,0,0-8-19.338,10.565,10.565,0,0,1-1.576-3.35,6.056,6.056,0,0,1,3.106-6.119,10.146,10.146,0,0,1,7.115-.827Z" transform="translate(-358.188 -275.129)" fill="#ededed"/>
    </g>
    <g id="Group_2997" data-name="Group 2997" transform="translate(454.136 329.517)">
      <g id="Group_2981" data-name="Group 2981" transform="translate(0 0)">
        <path id="Path_3171" data-name="Path 3171" d="M380.894,411.169l2.152,3.468,2.7-1.284-2.427-3.789Z" transform="translate(-340.537 -228.861)" fill="#ddd6ff"/>
        <path id="Path_3172" data-name="Path 3172" d="M393.738,420.137S381.7,417.3,379.791,418.75s14.061,3.569,14.061,3.569Z" transform="translate(-340.99 -225.715)" fill="#001136"/>
        <path id="Path_3173" data-name="Path 3173" d="M358.826,321.019s.092-6.055-.264-6.162c-1.033-.311-1.266,2.808-1.266,2.808s-1.856-6-2.735-5.722c-.542.17.182,3.614.182,3.614s-1.546-2.777-2.312-2.6c-.745.17.825,3.881.825,3.881s-1.34-1.792-2.034-1.569c-.477.153,4.338,8.342,4.338,8.342Z" transform="translate(-351.189 -263.867)" fill="#f7d3a9"/>
        <path id="Path_3174" data-name="Path 3174" d="M378.85,355.226s-19.183,23.222-9.591,50.481,16.084,30.152,16.084,30.152l5.555-2.9s-10.684-25.538-11.146-34.84c-.418-8.458,14.329-28.248,14.329-28.248l-2.989,75.18,7.075.906s18.893-84.162,16.875-90.726S404.595,339.071,378.85,355.226Z" transform="translate(-345.672 -251.524)" fill="#001136"/>
        <path id="Path_3175" data-name="Path 3175" d="M379.416,335.252l4.16,31.8,34.309-4.013-13.9-49.673-10.313,1.655-7.344.857c-4.175.488-6.783,1.243-9.807,4.161l-11.969,13.681-5.933-14.261-5.222,2.611s4.274,25.963,11,23.3C368.991,343.556,379.416,335.252,379.416,335.252Z" transform="translate(-350.398 -263.352)" fill="#ba9279"/>
        <path id="Path_3176" data-name="Path 3176" d="M369.378,284.143s7.571,19.183,8.581,22.211,21.92,17.493,21.92,17.493l-10.313,4.72-20.188-18.711-4.544-25.712Z" transform="translate(-346.296 -273.831)" fill="#ba9279"/>
        <g id="Group_2956" data-name="Group 2956" transform="translate(27.943 27.698)">
          <path id="Path_3177" data-name="Path 3177" d="M374.838,299.02l-2.913,10.018a4.191,4.191,0,0,0,2.873,5.2l1.319.376v7.161H382.2a3.888,3.888,0,0,0,3.887-3.887V301.575Z" transform="translate(-371.757 -296.195)" fill="#f7d3a9"/>
          <path id="Path_3178" data-name="Path 3178" d="M380.556,315.983c-1.119-.818-2.777-2.364-2.732-4.338,0,0,4.251-.121,3.114-3.072-.706-1.833-3.138-.378-3.138-.378s.971-3.674.374-4.835c0,0-7.3-.009-6.12-4.312,0,0,2.031-1.842,6.624-2.1s7.126,7.5,7.126,7.5l-3.872,11.1A.9.9,0,0,1,380.556,315.983Z" transform="translate(-371.697 -296.94)" fill="#353e70"/>
        </g>
        <path id="Path_3179" data-name="Path 3179" d="M365.9,286.865s-3.832-4.688-3.621-4.993c.615-.886,2.739,1.413,2.739,1.413s-2.274-5.851-1.414-6.183c.528-.2,2.1,2.944,2.1,2.944s-.514-3.137.194-3.474c.691-.329,1.767,3.554,1.767,3.554s-.064-2.239.618-2.493c.469-.177,1.785,9.231,1.785,9.231Z" transform="translate(-347.216 -276.552)" fill="#f7d3a9"/>
        <g id="Group_2957" data-name="Group 2957" transform="translate(28.355 66.344)">
          <path id="Path_3180" data-name="Path 3180" d="M380.467,325.4a10.6,10.6,0,0,1-1.2.884c-.727.557-1.747,1.331-2.9,2.144a24.711,24.711,0,0,1-4.312,2.74,24.622,24.622,0,0,1,4-3.174c1.151-.815,2.2-1.537,2.993-2.024S380.444,325.334,380.467,325.4Z" transform="translate(-372.06 -325.386)" fill="#d69e43"/>
        </g>
        <g id="Group_2958" data-name="Group 2958" transform="translate(32.596 46.945)">
          <path id="Path_3181" data-name="Path 3181" d="M384.955,311.115c.007-.014.065-.015.152.049a.651.651,0,0,1,.209.4,5.5,5.5,0,0,1-.094,1.542,6.149,6.149,0,0,1-.785,2.16,4.269,4.269,0,0,1-.91,1.056,4.217,4.217,0,0,1-1.312.721,16.844,16.844,0,0,1-4.971.738,5.755,5.755,0,0,1-2.062-.223,13.168,13.168,0,0,1,2.049-.155,21.622,21.622,0,0,0,4.805-.863A3.751,3.751,0,0,0,384.023,315a6.505,6.505,0,0,0,.831-1.975,8.2,8.2,0,0,0,.254-1.441A.82.82,0,0,0,384.955,311.115Z" transform="translate(-375.182 -311.107)" fill="#d69e43"/>
        </g>
        <g id="Group_2959" data-name="Group 2959" transform="translate(13.517 70.182)">
          <path id="Path_3182" data-name="Path 3182" d="M361.4,332.9c.05,0,.1.141.141.394l-.274.005a10.9,10.9,0,0,1-.107-2.365,5.962,5.962,0,0,1,.524-2.719,9.486,9.486,0,0,1,.008,2.744c-.049.993-.088,1.863-.151,2.331l-.274.005C361.3,333.039,361.347,332.9,361.4,332.9Z" transform="translate(-361.138 -328.212)" fill="#d69e43"/>
        </g>
        <g id="Group_2960" data-name="Group 2960" transform="translate(14.055 69.528)">
          <path id="Path_3183" data-name="Path 3183" d="M362.432,331.954c-.144.027-.446-.894-.672-2.06a4.551,4.551,0,0,1-.148-2.163c.144-.027.446.9.672,2.061A4.547,4.547,0,0,1,362.432,331.954Z" transform="translate(-361.534 -327.731)" fill="#d69e43"/>
        </g>
        <g id="Group_2961" data-name="Group 2961" transform="translate(2.882 57.458)">
          <path id="Path_3184" data-name="Path 3184" d="M359.081,318.873a17.992,17.992,0,0,1-5.77,2.2,18.075,18.075,0,0,1,5.77-2.2Z" transform="translate(-353.31 -318.846)" fill="#d69e43"/>
        </g>
        <g id="Group_2962" data-name="Group 2962" transform="translate(32.655 96.604)">
          <path id="Path_3185" data-name="Path 3185" d="M408.5,347.664a4.272,4.272,0,0,1-1.138.723,18.135,18.135,0,0,1-3.447,1.277c-2.989.8-7.147,1.761-11.783,2.622-2.318.433-4.535.793-6.555,1.092s-3.842.558-5.4.647a13.507,13.507,0,0,1-3.674-.226,4.033,4.033,0,0,1-1.28-.428c.012-.042.47.1,1.316.223a15.254,15.254,0,0,0,3.611.053c1.523-.132,3.335-.44,5.349-.754s4.22-.7,6.533-1.13c4.62-.86,8.787-1.761,11.783-2.464a21.938,21.938,0,0,0,3.455-1.1C408.061,347.865,408.476,347.627,408.5,347.664Z" transform="translate(-375.225 -347.66)" fill="#d69e43"/>
        </g>
        <path id="Path_3186" data-name="Path 3186" d="M380.05,325.224S378,340.053,373.83,342.407l-1.416-10.821Z" transform="translate(-343.578 -259.101)" fill="#f4ebe6" opacity="0.25"/>
        <path id="Path_3187" data-name="Path 3187" d="M373.661,302.64a5.266,5.266,0,0,1-1.708-2.081c-.33-.9.1-3.281.917-3.788.947-.591,2.155-.067,3.26.09,1.657.235,3.3-.41,4.963-.591s3.684.364,4.2,1.958c.1.327.192.739.522.834a1.156,1.156,0,0,0,.437-.008c1.291-.121,2.194,1.391,2.121,2.685a22.2,22.2,0,0,1-1.047,3.732c-.655,2.761.5,5.847-.712,8.414-.952,2.02-3.955,3.805-6.025,2.352l2.646-11.686Z" transform="translate(-343.783 -269.495)" fill="#353e70"/>
        <path id="Path_3188" data-name="Path 3188" d="M387.627,412.353s-11.309,5.009-11.951,7.321,13.36-5.652,13.36-5.652Z" transform="translate(-342.416 -227.861)" fill="#001136"/>
        <g id="Group_2963" data-name="Group 2963" transform="translate(27.011 143.294)">
          <path id="Path_3189" data-name="Path 3189" d="M378.038,382.042a23.084,23.084,0,0,1-6.965,3.7,40.017,40.017,0,0,1,6.965-3.7Z" transform="translate(-371.071 -382.028)" fill="#2c2656"/>
        </g>
        <g id="Group_2964" data-name="Group 2964" transform="translate(29.037 146.559)">
          <path id="Path_3190" data-name="Path 3190" d="M377.359,384.466a16.188,16.188,0,0,1-2.4,1.367,15.951,15.951,0,0,1-2.384,1.4c-.1-.1.749-1.076,2.118-1.863A4.952,4.952,0,0,1,377.359,384.466Z" transform="translate(-372.562 -384.431)" fill="#2c2656"/>
        </g>
        <g id="Group_2965" data-name="Group 2965" transform="translate(51.105 150.459)">
          <path id="Path_3191" data-name="Path 3191" d="M396.557,389.776a19.983,19.983,0,0,1-7.749-2.454,71.562,71.562,0,0,1,7.749,2.454Z" transform="translate(-388.806 -387.302)" fill="#2c2656"/>
        </g>
        <g id="Group_2966" data-name="Group 2966" transform="translate(51.97 148.711)">
          <path id="Path_3192" data-name="Path 3192" d="M396.849,389.2a18.664,18.664,0,0,1-7.4-3.167,87.669,87.669,0,0,1,7.4,3.167Z" transform="translate(-389.442 -386.015)" fill="#2c2656"/>
        </g>
        <g id="Group_2980" data-name="Group 2980" transform="translate(26.043 103.527)">
          <g id="Group_2967" data-name="Group 2967" transform="translate(14.276 79.002)">
            <path id="Path_3193" data-name="Path 3193" d="M380.917,410.92c.126-.077.44.2.7.618s.372.822.249.9-.439-.2-.7-.618S380.793,411,380.917,410.92Z" transform="translate(-380.866 -410.908)" fill="#2c2656"/>
          </g>
          <g id="Group_2968" data-name="Group 2968" transform="translate(10.708 72.699)">
            <path id="Path_3194" data-name="Path 3194" d="M378.271,406.273c.13-.069.625.587,1.1,1.465s.765,1.648.637,1.72-.622-.581-1.106-1.464S378.141,406.34,378.271,406.273Z" transform="translate(-378.24 -406.268)" fill="#2c2656"/>
          </g>
          <g id="Group_2969" data-name="Group 2969" transform="translate(7.545 66.161)">
            <path id="Path_3195" data-name="Path 3195" d="M375.949,401.459c.136-.06.586.629,1.005,1.537s.651,1.7.518,1.759-.58-.622-1-1.537S375.816,401.519,375.949,401.459Z" transform="translate(-375.911 -401.455)" fill="#2c2656"/>
          </g>
          <g id="Group_2970" data-name="Group 2970" transform="translate(4.826 59.426)">
            <path id="Path_3196" data-name="Path 3196" d="M373.956,396.5c.14-.05.542.666.9,1.6s.537,1.735.4,1.791-.538-.66-.9-1.6S373.819,396.551,373.956,396.5Z" transform="translate(-373.91 -396.498)" fill="#2c2656"/>
          </g>
          <g id="Group_2971" data-name="Group 2971" transform="translate(2.561 52.524)">
            <path id="Path_3197" data-name="Path 3197" d="M372.3,391.419c.139-.039.489.7.787,1.657s.421,1.768.28,1.814-.493-.7-.791-1.657S372.159,391.46,372.3,391.419Z" transform="translate(-372.243 -391.418)" fill="#2c2656"/>
          </g>
          <g id="Group_2972" data-name="Group 2972" transform="translate(0.846 45.465)">
            <path id="Path_3198" data-name="Path 3198" d="M371.062,386.222c.144-.026.431.746.64,1.72s.26,1.8.118,1.831-.431-.735-.64-1.721S370.918,386.248,371.062,386.222Z" transform="translate(-370.981 -386.221)" fill="#2c2656"/>
          </g>
          <g id="Group_2973" data-name="Group 2973" transform="translate(0 38.25)">
            <path id="Path_3199" data-name="Path 3199" d="M370.531,380.911c.148,0,.321.8.386,1.793s0,1.812-.148,1.83-.318-.787-.384-1.795S370.384,380.914,370.531,380.911Z" transform="translate(-370.358 -380.911)" fill="#2c2656"/>
          </g>
          <g id="Group_2974" data-name="Group 2974" transform="translate(0.061 31.002)">
            <path id="Path_3200" data-name="Path 3200" d="M370.864,375.576c.147.019.2.838.111,1.831s-.273,1.792-.42,1.786-.2-.826-.11-1.831S370.718,375.558,370.864,375.576Z" transform="translate(-370.403 -375.576)" fill="#2c2656"/>
          </g>
          <g id="Group_2975" data-name="Group 2975" transform="translate(1.01 23.875)">
            <path id="Path_3201" data-name="Path 3201" d="M371.987,370.331c.141.038.077.857-.145,1.83s-.518,1.736-.663,1.709-.08-.845.144-1.829S371.844,370.293,371.987,370.331Z" transform="translate(-371.101 -370.33)" fill="#2c2656"/>
          </g>
          <g id="Group_2976" data-name="Group 2976" transform="translate(2.885 16.99)">
            <path id="Path_3202" data-name="Path 3202" d="M373.786,365.265c.137.056-.033.86-.378,1.795s-.739,1.657-.878,1.611.029-.849.378-1.8S373.651,365.208,373.786,365.265Z" transform="translate(-372.481 -365.262)" fill="#2c2656"/>
          </g>
          <g id="Group_2977" data-name="Group 2977" transform="translate(5.619 10.434)">
            <path id="Path_3203" data-name="Path 3203" d="M376.187,360.441c.129.071-.136.849-.591,1.736s-.935,1.556-1.068,1.493.132-.84.592-1.736S376.058,360.369,376.187,360.441Z" transform="translate(-374.494 -360.436)" fill="#2c2656"/>
          </g>
          <g id="Group_2978" data-name="Group 2978" transform="translate(9.132 4.286)">
            <path id="Path_3204" data-name="Path 3204" d="M379.125,355.919c.12.086-.234.827-.788,1.657s-1.109,1.436-1.232,1.36.228-.821.789-1.657S379.005,355.832,379.125,355.919Z" transform="translate(-377.079 -355.911)" fill="#2c2656"/>
          </g>
          <g id="Group_2979" data-name="Group 2979" transform="translate(13.327)">
            <path id="Path_3205" data-name="Path 3205" d="M381.346,352.778c.111.1-.052.48-.364.86s-.663.613-.777.522.048-.477.365-.861S381.233,352.681,381.346,352.778Z" transform="translate(-380.168 -352.756)" fill="#2c2656"/>
          </g>
        </g>
      </g>
      <g id="Group_2996" data-name="Group 2996" transform="translate(31.412 111.284)">
        <g id="Group_2982" data-name="Group 2982" transform="translate(37.936 9.26)">
          <path id="Path_3206" data-name="Path 3206" d="M422.221,463.836c-.36.073-5.122-21.931-10.636-49.142s-9.691-49.339-9.329-49.412,5.12,21.927,10.636,49.147S422.582,463.764,422.221,463.836Z" transform="translate(-402.234 -365.282)" fill="#7e7d8b"/>
        </g>
        <g id="Group_2983" data-name="Group 2983" transform="translate(54.209 9.26)">
          <path id="Path_3207" data-name="Path 3207" d="M434.2,463.836c-.363.073-5.124-21.931-10.637-49.142s-9.691-49.339-9.331-49.412,5.123,21.927,10.638,49.147S434.56,463.764,434.2,463.836Z" transform="translate(-414.212 -365.282)" fill="#7e7d8b"/>
        </g>
        <rect id="Rectangle_657" data-name="Rectangle 657" width="48.978" height="9.26" transform="translate(8.945)" fill="#7e7d8b"/>
        <g id="Group_2986" data-name="Group 2986" transform="translate(0 4.655)">
          <g id="Group_2984" data-name="Group 2984" transform="translate(13.112)">
            <path id="Path_3208" data-name="Path 3208" d="M401.826,361.892c.363.064-3.337,23.208-8.263,51.69s-9.214,51.531-9.578,51.469,3.337-23.2,8.264-51.7S401.463,361.83,401.826,361.892Z" transform="translate(-383.961 -361.892)" fill="#7e7d8b"/>
          </g>
          <g id="Group_2985" data-name="Group 2985">
            <path id="Path_3209" data-name="Path 3209" d="M392.175,361.892c.363.064-3.337,23.208-8.263,51.69s-9.214,51.531-9.578,51.469,3.337-23.2,8.264-51.7S391.811,361.83,392.175,361.892Z" transform="translate(-374.31 -361.892)" fill="#7e7d8b"/>
          </g>
        </g>
        <path id="Path_3210" data-name="Path 3210" d="M408.386,395.569h16.274l.761,3.759H409.147Z" transform="translate(-362.092 -345.162)" fill="#7e7d8b"/>
        <g id="Group_2987" data-name="Group 2987" transform="translate(1.825 97.32)">
          <path id="Path_3211" data-name="Path 3211" d="M389.036,430.3c.053.365-2.9,1.1-6.594,1.633s-6.734.678-6.787.314,2.9-1.1,6.6-1.633S388.983,429.938,389.036,430.3Z" transform="translate(-375.653 -430.1)" fill="#7e7d8b"/>
        </g>
        <g id="Group_2988" data-name="Group 2988" transform="translate(3.219 88.753)">
          <path id="Path_3212" data-name="Path 3212" d="M390.061,424c.053.366-2.9,1.1-6.594,1.634s-6.733.678-6.786.312,2.9-1.095,6.593-1.633S390.008,423.633,390.061,424Z" transform="translate(-376.679 -423.795)" fill="#7e7d8b"/>
        </g>
        <g id="Group_2989" data-name="Group 2989" transform="translate(4.681 78.802)">
          <path id="Path_3213" data-name="Path 3213" d="M391.137,416.672c.053.364-2.9,1.1-6.594,1.633s-6.733.678-6.786.314,2.9-1.1,6.594-1.633S391.084,416.308,391.137,416.672Z" transform="translate(-377.755 -416.47)" fill="#7e7d8b"/>
        </g>
        <g id="Group_2990" data-name="Group 2990" transform="translate(6.446 68.85)">
          <path id="Path_3214" data-name="Path 3214" d="M392.436,409.348c.053.365-2.9,1.1-6.593,1.633s-6.734.678-6.787.314,2.9-1.095,6.594-1.633S392.383,408.982,392.436,409.348Z" transform="translate(-379.054 -409.144)" fill="#7e7d8b"/>
        </g>
        <g id="Group_2991" data-name="Group 2991" transform="translate(7.648 60.013)">
          <path id="Path_3215" data-name="Path 3215" d="M393.322,402.842c.053.364-2.9,1.1-6.594,1.633s-6.734.678-6.787.314,2.9-1.1,6.6-1.633S393.269,402.478,393.322,402.842Z" transform="translate(-379.939 -402.64)" fill="#7e7d8b"/>
        </g>
        <g id="Group_2992" data-name="Group 2992" transform="translate(9.909 51.11)">
          <path id="Path_3216" data-name="Path 3216" d="M394.985,396.289c.053.364-2.9,1.1-6.593,1.634s-6.733.678-6.787.313,2.9-1.1,6.6-1.633S394.933,395.925,394.985,396.289Z" transform="translate(-381.603 -396.087)" fill="#7e7d8b"/>
        </g>
        <g id="Group_2993" data-name="Group 2993" transform="translate(11.372 41.447)">
          <path id="Path_3217" data-name="Path 3217" d="M396.062,389.176c.053.365-2.9,1.1-6.594,1.633s-6.733.678-6.786.315,2.9-1.1,6.594-1.634S396.009,388.812,396.062,389.176Z" transform="translate(-382.68 -388.974)" fill="#7e7d8b"/>
        </g>
        <g id="Group_2994" data-name="Group 2994" transform="translate(13.135 30.848)">
          <path id="Path_3218" data-name="Path 3218" d="M397.361,381.374c.053.365-2.9,1.1-6.593,1.633s-6.734.678-6.789.315,2.9-1.1,6.6-1.633S397.308,381.012,397.361,381.374Z" transform="translate(-383.978 -381.172)" fill="#7e7d8b"/>
        </g>
        <g id="Group_2995" data-name="Group 2995" transform="translate(15.366 18.979)">
          <path id="Path_3219" data-name="Path 3219" d="M399,372.638c.053.364-2.9,1.1-6.6,1.633s-6.733.679-6.786.315,2.9-1.1,6.594-1.634S398.95,372.274,399,372.638Z" transform="translate(-385.62 -372.436)" fill="#7e7d8b"/>
        </g>
      </g>
    </g>
    <g id="Group_3008" data-name="Group 3008" transform="translate(68.751 345.43)">
      <path id="Path_3220" data-name="Path 3220" d="M68.751,363.088s-2.2,6.449-.734,11.021,2.975,2.947,2.975,2.947a7.334,7.334,0,0,1-.783-4.37,9.258,9.258,0,0,1,.867-3.44L72.3,374.63a15.117,15.117,0,0,0,.8-2.72c.345-1.672-.838-4.683-.533-6.219s.826-3.3.826-3.3Z" transform="translate(-67.515 -261.689)" fill="#f7d3a9"/>
      <path id="Path_3221" data-name="Path 3221" d="M134.026,303.952l.364-2.383s-2.474-5.4-1.72-6.574a25.583,25.583,0,0,1,3.243-3.379l1.542.236s2.752,3.577,3,4.763-1.345,5.433-2.473,8.659Z" transform="translate(-44.205 -287.064)" fill="#f7d3a9"/>
      <path id="Path_3222" data-name="Path 3222" d="M134.068,290.3l1.375,11.114,1.519-.345-1.409-10.994-.909-1.808Z" transform="translate(-43.652 -288.266)" fill="#7fbbef"/>
      <path id="Path_3223" data-name="Path 3223" d="M133.846,293.116l1.594-1.5s.774,1.566-.944,3.333Z" transform="translate(-43.732 -287.064)" fill="#f7d3a9"/>
      <g id="Group_2998" data-name="Group 2998" transform="translate(49.852 191.044)">
        <path id="Path_3224" data-name="Path 3224" d="M107.2,428.889l.166,4.077-2.957.454-.119-4.5Z" transform="translate(-104.181 -428.889)" fill="#f7d3a9"/>
        <path id="Path_3225" data-name="Path 3225" d="M104.438,432.542s12.171-2.2,14-.648-14.229,2.82-14.229,2.82Z" transform="translate(-104.21 -428.01)" fill="#001136"/>
      </g>
      <g id="Group_2999" data-name="Group 2999" transform="translate(2.939 174.236)">
        <path id="Path_3226" data-name="Path 3226" d="M76.455,418.986l-3.4,2.262-1.925-2.291,3.781-2.44Z" transform="translate(-69.157 -416.517)" fill="#f7d3a9"/>
        <path id="Path_3227" data-name="Path 3227" d="M71.653,418.313s8.208,9.252,7.833,11.622-9.809-10.688-9.809-10.688Z" transform="translate(-69.678 -415.873)" fill="#001136"/>
      </g>
      <path id="Path_3228" data-name="Path 3228" d="M123.754,354.2s10.23,9.441,10.4,44.456S122.113,456.9,122.113,456.9H113.5s14.121-43.967-1.746-73.123c0,0-5.308,33.967-33.414,59.95l-6.8-7.225S92.273,410.465,92.438,377.9c.033-6.452,1.114-9.718-1.13-16.937Z" transform="translate(-66.07 -264.625)" fill="#001136"/>
      <path id="Path_3229" data-name="Path 3229" d="M119.284,334.268s26.77-7.225,33.57-25.923l3.824-8.5,5.1,1.7s-1.33,34.411-34.552,43.771l-.529,2.019a56.161,56.161,0,0,0-.251,27.463l3.356,6.953-35.76,8.078s-4.471-17.525-.311-36.057c0,0-7.79-1.725-20.848,34.836L67.868,387.6s7.223-49.089,33.143-55.887Z" transform="translate(-67.388 -284.112)" fill="#ffaf7c"/>
      <g id="Group_3000" data-name="Group 3000" transform="translate(3.897 26.431)">
        <path id="Path_3230" data-name="Path 3230" d="M109.208,310.4l2.02,9.384a3.859,3.859,0,0,1-2.977,4.586l-1.236.258-.467,6.57-9.15-.651,1.319-18.536Z" transform="translate(-60.698 -306.761)" fill="#f7d3a9"/>
        <path id="Path_3231" data-name="Path 3231" d="M101.523,326.183s3.615-1.592,3.748-4.327c0,0-4.762-2.933-3.142-4.193s4.152,1.823,4.152,1.823-1.413-4.228-.789-5.255c0,0,6.7.469,5.9-3.557,0,0-1.742-1.823-5.941-2.361s-7.028,6.416-7.028,6.416Z" transform="translate(-60.331 -307.519)" fill="#06205b"/>
        <path id="Path_3232" data-name="Path 3232" d="M106.581,308.865a5.222,5.222,0,0,0-3.557-1.144,10.7,10.7,0,0,0-10.532,12.908,6.012,6.012,0,0,0,.77,2.031c1.024,1.595,2.964,2.292,4.764,2.885,1.572.519,4.324,1.485,5.717.591,0,0-2.1-6.531-.764-10.453A26.072,26.072,0,0,1,106.581,308.865Z" transform="translate(-62.536 -307.721)" fill="#06205b"/>
        <path id="Path_3233" data-name="Path 3233" d="M101.284,313.965a6.045,6.045,0,0,0-8.3,1.136c-1.193,1.634-1.549,3.9-3.163,5.122-1.9,1.441-4.578.765-6.961.607A12.225,12.225,0,0,0,71.9,325.88c-2.314,3.524-2.015,8.729,1.1,11.568A10.434,10.434,0,0,0,80.75,339.8a25.362,25.362,0,0,0,7.972-2.236c3.713-1.561,7.672-3.752,8.9-7.59.842-2.637.189-5.51.522-8.26a2.293,2.293,0,0,1,1.115-2c.61-.243,1.3.024,1.952-.014,1.576-.092,2.524-2.073,2-3.562a4.857,4.857,0,0,0-3.573-2.8" transform="translate(-70.384 -305.898)" fill="#06205b"/>
      </g>
      <path id="Path_3234" data-name="Path 3234" d="M99.063,323.878a35.354,35.354,0,0,0-6.54,5A11.884,11.884,0,0,0,89,336.155a2.477,2.477,0,0,0,.52,1.944,2.255,2.255,0,0,0,1.008.516c2.853.776,5.737-.909,8.215-2.523,4.133-2.691,8.335-5.442,11.468-9.25.231-.281.466-.662.291-.98a.941.941,0,0,0-.535-.359c-2.906-1.068-7.9-.9-10.906-1.626" transform="translate(-59.814 -275.497)" fill="#9a4f21"/>
      <g id="Group_3001" data-name="Group 3001" transform="translate(26.908 48.38)">
        <path id="Path_3235" data-name="Path 3235" d="M111.165,327.248a1.676,1.676,0,0,1-.251.418c-.179.262-.45.648-.8,1.138l-.592.817-.766.924c-.276.331-.572.686-.884,1.06-.329.361-.691.731-1.065,1.126a29.373,29.373,0,0,1-5.912,4.812,23.557,23.557,0,0,1-4.076,1.97,18.126,18.126,0,0,1-4.764,1.015,13.074,13.074,0,0,1-2.494-.058,3.469,3.469,0,0,1-1.224-.4,1.942,1.942,0,0,1-.863-1.009,3.854,3.854,0,0,1,.132-2.41,18.76,18.76,0,0,1,.72-2.1,14.078,14.078,0,0,1,2.255-3.437c.827-.978,1.66-1.829,2.433-2.587,1.546-1.519,2.862-2.674,3.777-3.467.461-.391.821-.694,1.069-.893a1.684,1.684,0,0,1,.4-.285c.012.015-.1.139-.325.365s-.564.552-1,.966c-.871.84-2.147,2.034-3.649,3.578-.751.772-1.562,1.63-2.361,2.606a13.935,13.935,0,0,0-2.144,3.346,18.857,18.857,0,0,0-.683,2.054,3.412,3.412,0,0,0-.13,2.08,1.914,1.914,0,0,0,1.676,1.069,12.714,12.714,0,0,0,2.38.05,17.8,17.8,0,0,0,4.626-.974,23.8,23.8,0,0,0,4-1.9,30.435,30.435,0,0,0,5.9-4.657c.379-.38.74-.744,1.081-1.088q.483-.542.91-1.024t.793-.891c.228-.284.437-.546.626-.783.378-.47.675-.833.882-1.076S111.148,327.238,111.165,327.248Z" transform="translate(-87.322 -323.877)" fill="#ce6c5f"/>
      </g>
      <g id="Group_3002" data-name="Group 3002" transform="translate(30.568 54.287)">
        <path id="Path_3236" data-name="Path 3236" d="M110.218,328.228c.024.046-.465.287-1.208.9a11.086,11.086,0,0,0-2.527,3.172,37.242,37.242,0,0,0-2.337,5.624,30.4,30.4,0,0,1-1.424,3.36,12.262,12.262,0,0,1-2.293,3.221,10.1,10.1,0,0,1-3.664,2.24,10.683,10.683,0,0,1-1.962.561,3.3,3.3,0,0,1-2-.226,2.654,2.654,0,0,1-1.269-1.432,3.8,3.8,0,0,1-.247-1.736,9.361,9.361,0,0,1,.857-2.834l.293.181a1.231,1.231,0,0,1-1.138.349,1.585,1.585,0,0,1-.906-.492,1.681,1.681,0,0,1-.314-1.535,2.331,2.331,0,0,1,.432-.871c.14-.171.234-.238.245-.23a3.9,3.9,0,0,0-.49,1.14,1.492,1.492,0,0,0,.329,1.306,1.3,1.3,0,0,0,.754.372.907.907,0,0,0,.827-.272l.663-.788-.37.97a9.437,9.437,0,0,0-.757,2.735,3.389,3.389,0,0,0,.245,1.53,2.2,2.2,0,0,0,1.06,1.172,2.837,2.837,0,0,0,1.709.16,10.084,10.084,0,0,0,1.859-.549,9.7,9.7,0,0,0,3.474-2.134,11.957,11.957,0,0,0,2.2-3.078,31.7,31.7,0,0,0,1.428-3.293,34.32,34.32,0,0,1,2.468-5.639,10.4,10.4,0,0,1,2.727-3.148,5,5,0,0,1,.546-.364,3.086,3.086,0,0,1,.421-.23C110.083,328.262,110.21,328.211,110.218,328.228Z" transform="translate(-90.015 -328.225)" fill="#ce6c5f"/>
      </g>
      <path id="Path_3237" data-name="Path 3237" d="M94.036,347.2s-2.742,8.208,4.005,3.6,7.717-21.3,7.717-21.3S101.142,346.192,94.036,347.2Z" transform="translate(-58.203 -273.479)" fill="#fff" opacity="0.18"/>
      <g id="Group_3003" data-name="Group 3003" transform="translate(54.12 151.936)">
        <path id="Path_3238" data-name="Path 3238" d="M115.188,400.371c-.012.155-1.781.107-3.93.374s-3.857.723-3.906.575a9.012,9.012,0,0,1,3.842-1.1A9,9,0,0,1,115.188,400.371Z" transform="translate(-107.351 -400.102)" fill="#453c87"/>
      </g>
      <g id="Group_3004" data-name="Group 3004" transform="translate(54.375 149.357)">
        <path id="Path_3239" data-name="Path 3239" d="M116.235,398.218c.035.054-.353.4-1.092.788a9.3,9.3,0,0,1-6.358.742c-.81-.207-1.266-.454-1.244-.515a22.952,22.952,0,0,0,4.428.179A22.9,22.9,0,0,0,116.235,398.218Z" transform="translate(-107.539 -398.204)" fill="#453c87"/>
      </g>
      <g id="Group_3005" data-name="Group 3005" transform="translate(27.064 140.498)">
        <path id="Path_3240" data-name="Path 3240" d="M91.446,397.019a6.945,6.945,0,0,1-3.978-5.335c.152-.048.632,1.394,1.736,2.856C90.29,396.015,91.535,396.888,91.446,397.019Z" transform="translate(-87.436 -391.683)" fill="#453c87"/>
      </g>
      <g id="Group_3006" data-name="Group 3006" transform="translate(25.689 143.598)">
        <path id="Path_3241" data-name="Path 3241" d="M91.047,397.1c-.077.018-.186-.27-.571-.552s-1.013-.618-1.672-1.018a10.573,10.573,0,0,1-2.377-1.541,6.162,6.162,0,0,1,2.649,1.08,8.107,8.107,0,0,1,1.659,1.2C91.125,396.7,91.116,397.1,91.047,397.1Z" transform="translate(-86.424 -393.965)" fill="#453c87"/>
      </g>
      <g id="Group_3007" data-name="Group 3007" transform="translate(39.89 115.639)">
        <path id="Path_3242" data-name="Path 3242" d="M110.553,379.571a4.517,4.517,0,0,1-2.206-.327,40.647,40.647,0,0,1-4.862-2.224c-1.858-.937-3.527-1.81-4.721-2.467a9.2,9.2,0,0,1-1.886-1.159,9.063,9.063,0,0,1,2.055.823c1.238.569,2.933,1.39,4.792,2.326s3.5,1.854,4.75,2.345C109.721,379.4,110.562,379.485,110.553,379.571Z" transform="translate(-96.877 -373.385)" fill="#453c87"/>
      </g>
    </g>
    <g id="Group_3009" data-name="Group 3009" transform="translate(267.353 192.063)" opacity="0.18">
      <path id="Path_3243" data-name="Path 3243" d="M215.762,176.906c-1.958,1.557-2.433,4.44-1.793,6.859a18.542,18.542,0,0,0,3.733,6.446q5.806,7.4,12.173,14.337a53.516,53.516,0,0,1,5.88,7.1c6.658,10.39,4.452,23.847,5.756,36.118.293,2.767,1.585,6.237,4.368,6.175a5.24,5.24,0,0,0,2.8-1.167,22.609,22.609,0,0,0,9.4-17.671c.043-2.015-.178-4.091.471-6,.9-2.651,3.285-4.457,5.158-6.539,3.879-4.309,5.7-10.038,7.407-15.58,1.962-6.351,3.869-13.495.8-19.393-2.171-4.178-6.46-6.838-10.832-8.581-14.234-5.675-30.227-3.558-45.389-1.352" transform="translate(-213.701 -175.376)" fill="#8982bc"/>
    </g>
    <g id="Group_3020" data-name="Group 3020" transform="translate(254.282 128.836)">
      <g id="Group_3010" data-name="Group 3010" transform="translate(49.86 138.159)">
        <path id="Path_3244" data-name="Path 3244" d="M243.772,230.532l.166,4.078-2.957.453-.119-4.5Z" transform="translate(-240.752 -230.532)" fill="#f7d3a9"/>
        <path id="Path_3245" data-name="Path 3245" d="M241.009,234.185s12.171-2.2,14-.648-14.229,2.82-14.229,2.82Z" transform="translate(-240.781 -229.654)" fill="#3f327a"/>
      </g>
      <g id="Group_3011" data-name="Group 3011" transform="translate(55.531 114.315)">
        <path id="Path_3246" data-name="Path 3246" d="M250.788,214.545l-2.093,3.5-2.723-1.239,2.363-3.829Z" transform="translate(-244.592 -212.981)" fill="#f7d3a9"/>
        <path id="Path_3247" data-name="Path 3247" d="M246.336,215.8s11.39,4.817,12.072,7.119-13.452-5.426-13.452-5.426Z" transform="translate(-244.956 -211.97)" fill="#3f327a"/>
      </g>
      <path id="Path_3248" data-name="Path 3248" d="M260.551,146.159c4.8-2.955-1.326-5.509,4.305-5.225a6.091,6.091,0,0,0,3.722-.519c1.38-.917,1.632-2.875,1.287-4.5a9.214,9.214,0,0,0-8.5-7.078c-5.4-.149-10.086,4.509-15.481,4.236a25.893,25.893,0,0,1-5.972-1.516c-5.755-1.72-13.16-.806-16.015,4.481-.765,1.414-1.13,3.027-1.973,4.4-2.39,3.89-7.634,4.653-11.474,7.123a14.2,14.2,0,0,0-6.312,13.026,7.624,7.624,0,0,0,2.7,5.529s5.811,7.411,18.963,0S260.551,146.159,260.551,146.159Z" transform="translate(-204.081 -128.836)" fill="#fe9887"/>
      <path id="Path_3249" data-name="Path 3249" d="M237.492,154.164c2.049-2.327,33.458,32.085,40.163,35.708s5.165,0,5.165,0l-13.455-15.008-25.875-29.02Z" transform="translate(-192.101 -122.738)" fill="#bfb0a7"/>
      <path id="Path_3250" data-name="Path 3250" d="M249.545,142.826a16.478,16.478,0,0,0-17.426,1.878l-.156.124c-8.642,6.914-19.558,20.5-16.323,43.786l30.532-3.623s-4.293-5.187,1.24-20.547c3.043-8.449,5.728-16.338,5.728-16.338Z" transform="translate(-200.145 -124.417)" fill="#bfb0a7"/>
      <path id="Path_3251" data-name="Path 3251" d="M228.471,153.173s2.588,27.428,12.938,31.05,28.982,3.623,28.982,3.623,1.431-1.909-18.381-6.641q-1.233-.3-2.579-.6s-11.233-6.49-10.652-26.334a14.937,14.937,0,0,0-.145-2.689c-.446-2.92-1.857-8.78-5.974-8.238C227.2,144.059,228.471,153.173,228.471,153.173Z" transform="translate(-195.381 -123.649)" fill="#bfb0a7"/>
      <path id="Path_3252" data-name="Path 3252" d="M215.486,177.051S238.773,205,243.431,213.277s2.587,37.7,4.14,38.518,7.5.01,7.5.01l.368-22.331.25-11.693a43.475,43.475,0,0,0-2.845-16.432l-6.306-16.535s25.745,1.6,21.219,14.49c-5.688,16.2-10.868,28.463-10.868,28.463l5.175,2.069s24.3-30.532,18.63-43.987-34.673-12.421-34.673-12.421Z" transform="translate(-199.991 -112.855)" fill="#001136"/>
      <g id="Group_3012" data-name="Group 3012" transform="translate(45.938 4.857)">
        <path id="Path_3253" data-name="Path 3253" d="M257.775,138.287l-4.111,8.673a3.857,3.857,0,0,1-5.154,1.826l-1.137-.546-1.922,2.167a3.687,3.687,0,0,1-5.207.311l-.914-.81a4.266,4.266,0,0,1-.36-6.02l9.5-10.711Z" transform="translate(-237.895 -132.137)" fill="#f7d3a9"/>
        <path id="Path_3254" data-name="Path 3254" d="M241.519,146.026s3.838.937,5.608-1.149c0,0-1.992-5.225.061-5.24s2.182,3.975,2.182,3.975,1.455-4.216,2.574-4.649c0,0,5.029,4.451,6.843.769,0,0-.272-2.507-3.275-5.491s-8.977-1.421-8.977-1.421Z" transform="translate(-236.595 -132.411)" fill="#fe9887"/>
      </g>
      <g id="Group_3013" data-name="Group 3013" transform="translate(45.922 17.334)">
        <path id="Path_3255" data-name="Path 3255" d="M244.909,147.877c.024.015-.037.2-.295.41a2.582,2.582,0,0,1-1.278.478,9.5,9.5,0,0,1-1.989.067,3.074,3.074,0,0,1-1.186-.357,3.232,3.232,0,0,1-.985-.893,7.1,7.1,0,0,1-1.292-4.2,3.417,3.417,0,0,1,.355-1.782c.087.018-.05.693.022,1.773a7.665,7.665,0,0,0,1.342,3.892,2.818,2.818,0,0,0,.818.759,2.729,2.729,0,0,0,.988.325,12.257,12.257,0,0,0,1.89.045,2.9,2.9,0,0,0,1.2-.276C244.759,147.98,244.876,147.85,244.909,147.877Z" transform="translate(-237.883 -141.596)" fill="#624fb5"/>
      </g>
      <g id="Group_3014" data-name="Group 3014" transform="translate(24.633 26.575)">
        <path id="Path_3256" data-name="Path 3256" d="M234.519,148.4a8.929,8.929,0,0,1-.747,1.382c-.53.891-1.27,2.141-2.179,3.675A84.245,84.245,0,0,0,225.286,166a43.2,43.2,0,0,0-2.1,7.414,33.35,33.35,0,0,0-.579,6.26,29.733,29.733,0,0,0,.314,4.236,10.98,10.98,0,0,1,.211,1.553,1.2,1.2,0,0,1-.137-.384c-.065-.257-.187-.634-.279-1.133a24.507,24.507,0,0,1-.486-4.265,31.368,31.368,0,0,1,.473-6.354,41.293,41.293,0,0,1,2.085-7.516,73.718,73.718,0,0,1,6.483-12.549c.959-1.531,1.762-2.752,2.326-3.591A8.859,8.859,0,0,1,234.519,148.4Z" transform="translate(-222.212 -148.398)" fill="#988f8a"/>
      </g>
      <path id="Path_3257" data-name="Path 3257" d="M237.009,143.885a12.739,12.739,0,0,0,6.127,2.141c3.252.1,5.345-13.614,5.345-13.614Z" transform="translate(-192.274 -127.554)" fill="#fe9887"/>
      <g id="Group_3015" data-name="Group 3015" transform="translate(27.824 65.282)">
        <path id="Path_3258" data-name="Path 3258" d="M228.4,176.889a2.889,2.889,0,0,1,.2,1.437,8.894,8.894,0,0,1-2.822,6.274c-.67.606-1.172.859-1.208.807-.05-.068.364-.424.939-1.071a10.944,10.944,0,0,0,2.714-6.036A6.324,6.324,0,0,1,228.4,176.889Z" transform="translate(-224.561 -176.889)" fill="#4c5b7c"/>
      </g>
      <g id="Group_3016" data-name="Group 3016" transform="translate(32.061 76.27)">
        <path id="Path_3259" data-name="Path 3259" d="M227.681,184.977a3.477,3.477,0,0,1,.47.507c.3.344.724.855,1.268,1.519,1.084,1.331,2.648,3.265,4.463,5.748a66.345,66.345,0,0,1,5.718,9.166,40.586,40.586,0,0,1,4.057,12.584,170.514,170.514,0,0,1,1.975,23.92c.037,3.073-.022,5.559-.091,7.275-.029.859-.072,1.523-.1,1.974a3.293,3.293,0,0,1-.075.687,3.474,3.474,0,0,1-.033-.69c0-.469,0-1.13,0-1.977.005-1.714.007-4.2-.079-7.261a189.8,189.8,0,0,0-2.123-23.841,40.812,40.812,0,0,0-3.971-12.451,69.759,69.759,0,0,0-5.585-9.168c-1.769-2.5-3.285-4.468-4.319-5.838l-1.187-1.581A3.279,3.279,0,0,1,227.681,184.977Z" transform="translate(-227.68 -184.977)" fill="#4c5b7c"/>
      </g>
      <g id="Group_3017" data-name="Group 3017" transform="translate(45.615 68.701)">
        <path id="Path_3260" data-name="Path 3260" d="M237.774,179.406c.152-.011.312.773.649,1.675s.712,1.606.59,1.7-.73-.523-1.091-1.513S237.633,179.407,237.774,179.406Z" transform="translate(-237.657 -179.406)" fill="#dba246"/>
      </g>
      <g id="Group_3018" data-name="Group 3018" transform="translate(40.599 61.971)">
        <path id="Path_3261" data-name="Path 3261" d="M237.847,177.952c-.12.1-.925-.743-1.985-1.69s-1.974-1.664-1.892-1.793a4.93,4.93,0,0,1,2.248,1.4C237.315,176.847,237.959,177.866,237.847,177.952Z" transform="translate(-233.964 -174.451)" fill="#4c5b7c"/>
      </g>
      <g id="Group_3019" data-name="Group 3019" transform="translate(49.877 68.84)">
        <path id="Path_3262" data-name="Path 3262" d="M240.794,181.6a3.418,3.418,0,0,1,.6-.333,15.907,15.907,0,0,1,1.827-.749,19.354,19.354,0,0,1,12.135-.071,12.254,12.254,0,0,1,4.991,2.937,7.934,7.934,0,0,1,1.717,2.676,11.872,11.872,0,0,1,.705,3.221,33.525,33.525,0,0,1,.084,3.376c-.015,1.138-.057,2.3-.171,3.468a24.476,24.476,0,0,1-1.626,6.658c-.792,2.068-1.717,3.982-2.558,5.816-1.7,3.66-3.233,6.957-4.524,9.733s-2.322,5.014-3.134,6.526a18.743,18.743,0,0,1-1.015,1.693,2.953,2.953,0,0,1-.423.545,3.9,3.9,0,0,1,.331-.6c.224-.389.548-.966.922-1.731.747-1.527,1.713-3.807,2.975-6.589l4.421-9.779c.829-1.842,1.74-3.758,2.516-5.8a24.217,24.217,0,0,0,1.584-6.524c.113-1.149.155-2.295.171-3.424s.018-2.244-.076-3.323a11.365,11.365,0,0,0-.659-3.084A7.46,7.46,0,0,0,260,183.726a11.884,11.884,0,0,0-4.779-2.858,19.106,19.106,0,0,0-4.834-.956,20.033,20.033,0,0,0-7.1.8C241.665,181.218,240.816,181.648,240.794,181.6Z" transform="translate(-240.794 -179.508)" fill="#4c5b7c"/>
      </g>
    </g>
    <g id="Group_3021" data-name="Group 3021" transform="translate(297.363 323.621)" opacity="0.622">
      <path id="Path_3263" data-name="Path 3263" d="M235.791,274.01a1.91,1.91,0,0,1,1.073-1.464,2.989,2.989,0,0,1,2.8.033c1.406.837,2.049,2.517,2.433,4.108a12.423,12.423,0,0,0,1.6,4.6,2.074,2.074,0,0,0,1.2.888c.893.17,1.663-.594,2.273-1.27a13.993,13.993,0,0,1,6.275-4.468c2.507-.7,5.577.037,6.884,2.288a9.247,9.247,0,0,1,.913,4.078q1.149,16.908,2.3,33.814c.355,5.24.7,10.612-.8,15.644-1.354,4.548-14.365,17.7-20.583,17.7" transform="translate(-235.791 -272.213)" fill="#fff"/>
    </g>
    <g id="Group_3033" data-name="Group 3033" transform="translate(251.101 326.511)">
      <g id="Group_3022" data-name="Group 3022" transform="translate(4.994 5.929)">
        <path id="Path_3264" data-name="Path 3264" d="M247.579,357.171,244.6,417.82l-8.682,40.491-4.074-1.121,3.405-40.5-6.792-41.73-6.039,38.9L209,458.465l-3.585.123,6.427-44.408-1.761-54.053Z" transform="translate(-205.415 -250.569)" fill="#f7d3a9"/>
        <path id="Path_3265" data-name="Path 3265" d="M259.153,282.478l-4.006,31.061-19.353,18.683-17.35.253-6.3,10.942,2.528,9.9a33.339,33.339,0,0,1-1.811,21.737L208.85,387.3l37.9,4.364c1.244-28.782.663-31.129-4.039-47.492l22.379-29,.062-33.79Z" transform="translate(-204.183 -277.742)" fill="#06205b"/>
        <path id="Path_3266" data-name="Path 3266" d="M240.594,282.349c-1.88,1.031-14.039,32.073-14.039,32.073l.7,19.853-11.344,2.062V313.588L235.728,278.7Z" transform="translate(-201.651 -278.704)" fill="#06205b"/>
      </g>
      <g id="Group_3023" data-name="Group 3023" transform="translate(0 39.187)">
        <path id="Path_3267" data-name="Path 3267" d="M229.5,304.864l3.467,8.95a3.854,3.854,0,0,1-2.22,5l-1.179.451.569,6.562-9.139.792L219.389,308.1Z" transform="translate(-195.41 -302.582)" fill="#f7d3a9"/>
        <path id="Path_3268" data-name="Path 3268" d="M224.348,322.362s3.5-3.044,3.2-5.766c0,0-5.163-2.149-3.762-3.65s4.387,1.151,4.387,1.151-2.06-3.955-1.6-5.066c0,0,6.691-.588,5.267-4.437,0,0-2.008-1.528-6.238-1.4s-5.934,7.442-5.934,7.442Z" transform="translate(-195.311 -303.185)" fill="#ffaf7c"/>
        <path id="Path_3269" data-name="Path 3269" d="M232.688,303.643a12.778,12.778,0,0,0-16.021,13.431c.242,2.856,1.421,5.836.307,8.475a10.311,10.311,0,0,1-2.77,3.4c-3.179,2.9-6.467,5.759-8.93,9.287s-4.058,7.884-3.377,12.135a10.144,10.144,0,0,0,2.182,4.96c.622.732,1.369,1.361,1.917,2.152,1.955,2.823.856,6.77,2.054,9.988,1.538,4.131,6.38,5.976,10.764,6.421,6.017.611,12.5-.663,16.938-4.775s6.086-11.44,2.671-16.43c-1.691-2.471-4.566-4.642-4.285-7.622.175-1.853,1.573-3.322,2.376-5a8.427,8.427,0,0,0-2.42-10.032c-1.094-.83-2.392-1.383-3.4-2.312s-1.7-2.448-1.088-3.68c.466-.948,1.558-1.46,2.049-2.4.731-1.4-.156-3.1-1.189-4.294s-2.3-2.386-2.454-3.959a6.292,6.292,0,0,1,1.023-3.4q1.655-3.148,3.311-6.3" transform="translate(-201.739 -303.168)" fill="#ffaf7c"/>
      </g>
      <path id="Path_3270" data-name="Path 3270" d="M209.573,359.348l-2.738,21.138-.666,69.178h4.945a284.359,284.359,0,0,0,11.07-35.853,319.163,319.163,0,0,0,5.934-38.4l4.861,35.039-1.147,40.951H236.9s4.5-10.382,7.146-32.306,3.435-55.388,3.435-55.388Z" transform="translate(-199.912 -243.86)" fill="#001136"/>
      <path id="Path_3271" data-name="Path 3271" d="M205.849,430.463s12.37-.022,13.9,1.83-14.5.269-14.5.269Z" transform="translate(-200.483 -218.361)" fill="#001136"/>
      <path id="Path_3272" data-name="Path 3272" d="M224.229,431.427s12.171-2.2,14-.648S224,433.6,224,433.6Z" transform="translate(-193.757 -218.447)" fill="#001136"/>
      <path id="Path_3282" data-name="Path 3282" d="M234.33,283.914s5.338-2.861,5.259-3.223c-.23-1.054-3.072.255-3.072.255s4.343-4.533,3.675-5.171c-.409-.39-3.069,1.916-3.069,1.916s1.676-2.7,1.152-3.284-2.994,2.606-2.994,2.606.916-2.043.384-2.541c-.365-.344-5.187,7.843-5.187,7.843Z" transform="translate(-191.434 -274.34)" fill="#f7d3a9"/>
      <path id="Path_3283" data-name="Path 3283" d="M247.044,284.877s-2.258-5.618-1.964-5.844c.852-.662,2.19,2.165,2.19,2.165s-.421-6.263.5-6.323c.564-.035,1.126,3.437,1.126,3.437s.446-3.145,1.224-3.257c.757-.107.624,3.919.624,3.919s.607-2.155,1.335-2.2c.5-.027-1.057,9.343-1.057,9.343Z" transform="translate(-186.208 -274.148)" fill="#f7d3a9"/>
    </g>
    <g id="Group_3067" data-name="Group 3067" transform="translate(143.775 432.011)">
      <g id="Group_3058" data-name="Group 3058" transform="translate(48.347 2.011)">
        <path id="Path_3284" data-name="Path 3284" d="M158.326,387.5l13.961-34.028s38.723,13.043,38.315,13.859-16.9,34.5-16.9,34.5Z" transform="translate(-158.326 -353.477)" fill="#f4f3ff"/>
        <g id="Group_3034" data-name="Group 3034" transform="translate(8.824 5.631)">
          <path id="Path_3285" data-name="Path 3285" d="M176.717,357.622a1.081,1.081,0,0,1-.118.234l-.379.644c-.355.588-.831,1.384-1.412,2.352-1.186,1.99-2.781,4.764-4.425,7.892s-3.02,6.017-3.986,8.123c-.466,1.027-.85,1.871-1.136,2.5l-.312.678a1.035,1.035,0,0,1-.126.23.979.979,0,0,1,.076-.251c.073-.187.162-.417.268-.7.236-.606.6-1.471,1.058-2.535.924-2.127,2.278-5.035,3.923-8.169s3.27-5.9,4.5-7.866c.614-.985,1.122-1.773,1.485-2.31l.422-.618A.924.924,0,0,1,176.717,357.622Z" transform="translate(-164.821 -357.622)" fill="#453c87"/>
        </g>
        <g id="Group_3035" data-name="Group 3035" transform="translate(17.388 4.933)">
          <path id="Path_3286" data-name="Path 3286" d="M193.1,367.444a.884.884,0,0,1-.236-.075l-.658-.262c-.569-.234-1.387-.581-2.4-1.02-2.016-.876-4.786-2.121-7.82-3.549s-5.762-2.767-7.722-3.76c-.98-.5-1.77-.9-2.312-1.2l-.621-.338a.932.932,0,0,1-.209-.134.866.866,0,0,1,.232.087c.177.079.389.177.644.293l2.349,1.118,7.752,3.69,7.785,3.618,2.358,1.1c.254.124.465.225.639.308A.926.926,0,0,1,193.1,367.444Z" transform="translate(-171.125 -357.108)" fill="#453c87"/>
        </g>
        <g id="Group_3036" data-name="Group 3036" transform="translate(26.647 11.727)">
          <path id="Path_3287" data-name="Path 3287" d="M193.048,362.109a1.689,1.689,0,0,1-.143.319c-.118.228-.272.522-.461.888l-1.729,3.251c-1.466,2.739-3.5,6.52-5.638,10.75s-3.943,8.127-5.169,10.98c-.615,1.425-1.1,2.585-1.429,3.391q-.238.569-.386.921a1.762,1.762,0,0,1-.152.317,1.689,1.689,0,0,1,.1-.334c.087-.242.2-.553.34-.943.3-.816.758-1.988,1.352-3.425,1.185-2.876,2.964-6.79,5.105-11.027s4.2-8,5.71-10.72l1.8-3.209c.208-.357.375-.645.5-.865A1.739,1.739,0,0,1,193.048,362.109Z" transform="translate(-177.94 -362.109)" fill="#453c87"/>
        </g>
        <g id="Group_3037" data-name="Group 3037" transform="translate(19.104 8.195)">
          <path id="Path_3288" data-name="Path 3288" d="M194.057,369.236c-.03.068-4.906-2.057-10.889-4.741s-10.81-4.917-10.78-4.984,4.9,2.054,10.889,4.741S194.087,369.168,194.057,369.236Z" transform="translate(-172.388 -359.509)" fill="#453c87"/>
        </g>
        <g id="Group_3038" data-name="Group 3038" transform="translate(18.957 11.869)">
          <path id="Path_3289" data-name="Path 3289" d="M176.672,364.175c-.046.065-.951-.523-2.16-1.056s-2.25-.815-2.232-.891a8.254,8.254,0,0,1,4.392,1.947Z" transform="translate(-172.28 -362.213)" fill="#453c87"/>
        </g>
        <g id="Group_3039" data-name="Group 3039" transform="translate(18.018 12.601)">
          <path id="Path_3290" data-name="Path 3290" d="M176.117,364.666c-.046.067-.959-.561-2.209-1.079s-2.333-.738-2.319-.817a7.571,7.571,0,0,1,4.528,1.9Z" transform="translate(-171.589 -362.752)" fill="#453c87"/>
        </g>
        <g id="Group_3040" data-name="Group 3040" transform="translate(17.803 13.549)">
          <path id="Path_3291" data-name="Path 3291" d="M175.874,365.644c-.042.064-.994-.5-2.217-1.1a24.336,24.336,0,0,1-2.225-1.084,7.7,7.7,0,0,1,2.343.845A7.608,7.608,0,0,1,175.874,365.644Z" transform="translate(-171.431 -363.45)" fill="#453c87"/>
        </g>
        <g id="Group_3041" data-name="Group 3041" transform="translate(26.035 13.754)">
          <path id="Path_3292" data-name="Path 3292" d="M178.218,363.806c-.005-.016.09-.075.28-.133a1.643,1.643,0,0,1,.853-.029,1.163,1.163,0,0,1,.88.925,1.006,1.006,0,0,1-.23.765,1.6,1.6,0,0,1-.67.5,1.444,1.444,0,0,1-.837.079,1.311,1.311,0,0,1-.679-.4,1.128,1.128,0,0,1-.224-1.253,1.047,1.047,0,0,1,.652-.561c.2-.053.315-.015.314,0s-.111.022-.28.1a1.029,1.029,0,0,0-.514.542A.934.934,0,0,0,178,365.35a1.115,1.115,0,0,0,1.239.239,1.079,1.079,0,0,0,.754-.988.978.978,0,0,0-.689-.774,1.782,1.782,0,0,0-.78-.052C178.331,363.8,178.225,363.825,178.218,363.806Z" transform="translate(-177.49 -363.601)" fill="#453c87"/>
        </g>
        <g id="Group_3042" data-name="Group 3042" transform="translate(29.186 15.604)">
          <path id="Path_3293" data-name="Path 3293" d="M184.8,367.118a17.305,17.305,0,0,1-4.986-2.149A19.846,19.846,0,0,1,182.324,366,19.573,19.573,0,0,1,184.8,367.118Z" transform="translate(-179.809 -364.963)" fill="#453c87"/>
        </g>
        <g id="Group_3043" data-name="Group 3043" transform="translate(28.673 16.317)">
          <path id="Path_3294" data-name="Path 3294" d="M181.709,366.59a2.326,2.326,0,0,1-1.238-.338c-.644-.31-1.08-.7-1.037-.755a22.207,22.207,0,0,1,2.274,1.094Z" transform="translate(-179.432 -365.488)" fill="#453c87"/>
        </g>
        <g id="Group_3044" data-name="Group 3044" transform="translate(22.544 16.826)">
          <path id="Path_3295" data-name="Path 3295" d="M174.923,371.634a1.131,1.131,0,0,1,.19.06l.514.19,1.9.724,6.574,2.565-.151.052,3.43-5.824c.041-.068.08-.136.12-.2l.069.194-9.091-3.3.125-.042c-2.085,3.164-3.237,4.913-3.682,5.585a10.349,10.349,0,0,1,.9-1.583c.609-.992,1.5-2.4,2.608-4.119l.045-.071.08.029,9.109,3.251.152.054-.081.139-.12.2-3.449,5.813-.054.09-.1-.038-6.6-2.7c-.772-.325-1.394-.584-1.852-.776l-.482-.209A.662.662,0,0,1,174.923,371.634Z" transform="translate(-174.92 -365.862)" fill="#453c87"/>
        </g>
        <g id="Group_3045" data-name="Group 3045" transform="translate(19.688 24.288)">
          <path id="Path_3296" data-name="Path 3296" d="M173.548,371.56c-.005-.016.088-.075.28-.133a1.643,1.643,0,0,1,.853-.029,1.16,1.16,0,0,1,.879.924,1,1,0,0,1-.23.766,1.585,1.585,0,0,1-.668.5,1.44,1.44,0,0,1-.836.079,1.309,1.309,0,0,1-.681-.4,1.123,1.123,0,0,1-.224-1.253,1.048,1.048,0,0,1,.651-.561c.2-.053.317-.015.314,0s-.11.022-.279.1a1.028,1.028,0,0,0-.515.541.939.939,0,0,0,.231,1.008,1.115,1.115,0,0,0,1.24.238,1.075,1.075,0,0,0,.753-.986.976.976,0,0,0-.687-.774,1.781,1.781,0,0,0-.78-.052C173.659,371.553,173.553,371.579,173.548,371.56Z" transform="translate(-172.818 -371.355)" fill="#453c87"/>
        </g>
        <g id="Group_3046" data-name="Group 3046" transform="translate(22.841 26.138)">
          <path id="Path_3297" data-name="Path 3297" d="M180.125,374.872a17.3,17.3,0,0,1-4.986-2.149,20.1,20.1,0,0,1,2.513,1.028A19.569,19.569,0,0,1,180.125,374.872Z" transform="translate(-175.138 -372.717)" fill="#453c87"/>
        </g>
        <g id="Group_3047" data-name="Group 3047" transform="translate(22.328 26.851)">
          <path id="Path_3298" data-name="Path 3298" d="M177.038,374.344a2.338,2.338,0,0,1-1.238-.338c-.644-.31-1.08-.7-1.037-.755a22.625,22.625,0,0,1,2.274,1.094Z" transform="translate(-174.761 -373.241)" fill="#453c87"/>
        </g>
        <g id="Group_3048" data-name="Group 3048" transform="translate(16.198 27.36)">
          <path id="Path_3299" data-name="Path 3299" d="M170.252,379.388a1.183,1.183,0,0,1,.19.06l.513.19,1.9.724c1.637.64,3.906,1.524,6.574,2.565l-.149.052c1.043-1.774,2.206-3.747,3.43-5.824l.118-.2.069.194-9.09-3.3.125-.042c-2.085,3.164-3.237,4.913-3.682,5.585a10.319,10.319,0,0,1,.894-1.583c.609-.992,1.5-2.4,2.61-4.119l.045-.071.08.029,9.109,3.251.152.054-.083.139-.118.2L179.49,383.1l-.053.09-.1-.038c-2.679-1.1-4.959-2.03-6.6-2.7-.772-.325-1.394-.584-1.853-.776l-.481-.209A.658.658,0,0,1,170.252,379.388Z" transform="translate(-170.249 -373.616)" fill="#453c87"/>
        </g>
        <g id="Group_3049" data-name="Group 3049" transform="translate(30.814 14.258)">
          <path id="Path_3300" data-name="Path 3300" d="M194.637,363.972c.065.033-2.932,6.081-6.695,13.507s-6.869,13.42-6.934,13.387,2.932-6.081,6.7-13.508S194.572,363.938,194.637,363.972Z" transform="translate(-181.007 -363.972)" fill="#453c87"/>
        </g>
        <g id="Group_3050" data-name="Group 3050" transform="translate(39.172 17.502)">
          <path id="Path_3301" data-name="Path 3301" d="M194.142,368.8a25.6,25.6,0,0,1-3.535-1.092,25.865,25.865,0,0,1-3.447-1.342,25.991,25.991,0,0,1,3.535,1.091A25.536,25.536,0,0,1,194.142,368.8Z" transform="translate(-187.16 -366.36)" fill="#453c87"/>
        </g>
        <g id="Group_3051" data-name="Group 3051" transform="translate(41.463 16.331)">
          <path id="Path_3302" data-name="Path 3302" d="M190.531,370.921a14.325,14.325,0,0,1-1.67-5.423c.076-.014.357,1.224.818,2.717S190.6,370.891,190.531,370.921Z" transform="translate(-188.846 -365.498)" fill="#453c87"/>
        </g>
        <g id="Group_3052" data-name="Group 3052" transform="translate(41.129 23.483)">
          <path id="Path_3303" data-name="Path 3303" d="M188.673,373.152a5.412,5.412,0,0,1,.17-2.39,5.472,5.472,0,0,1-.17,2.39Z" transform="translate(-188.6 -370.762)" fill="#453c87"/>
        </g>
        <g id="Group_3053" data-name="Group 3053" transform="translate(40.189 24.534)">
          <path id="Path_3304" data-name="Path 3304" d="M190.645,371.688a8.585,8.585,0,0,1-1.369.141,8.222,8.222,0,0,1-1.367.175,3.5,3.5,0,0,1,2.736-.317Z" transform="translate(-187.908 -371.536)" fill="#453c87"/>
        </g>
        <g id="Group_3054" data-name="Group 3054" transform="translate(14.89 6.452)">
          <path id="Path_3305" data-name="Path 3305" d="M169.287,358.231a19.274,19.274,0,0,1,2.21,1.019,19.55,19.55,0,0,1,2.194,1.057,12.164,12.164,0,0,1-4.4-2.076Z" transform="translate(-169.286 -358.226)" fill="#453c87"/>
        </g>
        <g id="Group_3055" data-name="Group 3055" transform="translate(15.01 2.263)">
          <path id="Path_3306" data-name="Path 3306" d="M173.387,355.143a62.64,62.64,0,0,1-4.009,7.113,31.5,31.5,0,0,1,1.888-3.622A31.143,31.143,0,0,1,173.387,355.143Z" transform="translate(-169.375 -355.143)" fill="#453c87"/>
        </g>
        <g id="Group_3056" data-name="Group 3056" transform="translate(15.343 4.092)">
          <path id="Path_3307" data-name="Path 3307" d="M169.859,358.3c-.073.007-.17-.391-.216-.891s-.023-.909.049-.916.171.393.216.893S169.933,358.29,169.859,358.3Z" transform="translate(-169.619 -356.489)" fill="#453c87"/>
        </g>
        <g id="Group_3057" data-name="Group 3057" transform="translate(14.402 4.801)">
          <path id="Path_3308" data-name="Path 3308" d="M171.889,357.04a4.4,4.4,0,0,1-1.455.422,4.346,4.346,0,0,1-1.507.159,4.441,4.441,0,0,1,1.455-.423A4.342,4.342,0,0,1,171.889,357.04Z" transform="translate(-168.927 -357.011)" fill="#453c87"/>
        </g>
      </g>
      <path id="Path_3309" data-name="Path 3309" d="M186.778,379.4s1.725-5.8,2.1-5.8c1.077.014.368,3.06.368,3.06s3.565-5.168,4.322-4.641c.466.322-1.255,3.391-1.255,3.391s2.307-2.186,2.983-1.789c.66.387-1.948,3.456-1.948,3.456s1.816-1.307,2.411-.887c.408.289-6.638,6.66-6.638,6.66Z" transform="translate(-99.778 -344.83)" fill="#f7d3a9"/>
      <path id="Path_3310" data-name="Path 3310" d="M186.778,379.4s1.725-5.8,2.1-5.8c1.077.014.368,3.06.368,3.06s3.565-5.168,4.322-4.641c.466.322-1.255,3.391-1.255,3.391s2.307-2.186,2.983-1.789c.66.387-1.948,3.456-1.948,3.456s1.816-1.307,2.411-.887c.408.289-6.638,6.66-6.638,6.66Z" transform="translate(-99.778 -344.83)" fill="#f7d3a9"/>
      <g id="Group_3059" data-name="Group 3059" transform="translate(46.914 165.033)">
        <path id="Path_3311" data-name="Path 3311" d="M160.262,473.474l.166,4.078-2.957.454-.119-4.5Z" transform="translate(-157.242 -473.474)" fill="#f7d3a9"/>
        <path id="Path_3312" data-name="Path 3312" d="M157.5,477.128s12.171-2.2,14-.649-14.229,2.82-14.229,2.82Z" transform="translate(-157.271 -472.595)" fill="#001136"/>
      </g>
      <g id="Group_3060" data-name="Group 3060" transform="translate(0 148.227)">
        <path id="Path_3313" data-name="Path 3313" d="M129.515,463.57l-3.4,2.262-1.925-2.29,3.781-2.44Z" transform="translate(-122.218 -461.102)" fill="#f7d3a9"/>
        <path id="Path_3314" data-name="Path 3314" d="M124.714,462.9s8.208,9.253,7.832,11.622-9.807-10.688-9.807-10.688Z" transform="translate(-122.739 -460.459)" fill="#001136"/>
      </g>
      <path id="Path_3315" data-name="Path 3315" d="M176.815,398.785s10.23,9.442,10.4,44.456-12.042,58.248-12.042,58.248h-8.609s14.121-43.966-1.744-73.123c0,0-5.309,33.965-33.415,59.949l-6.8-7.223s20.727-26.042,20.892-58.607c.033-6.45,1.114-9.715-1.13-16.936Z" transform="translate(-122.069 -335.22)" fill="#001136"/>
      <g id="Group_3061" data-name="Group 3061" transform="translate(51.181 125.926)">
        <path id="Path_3316" data-name="Path 3316" d="M168.249,444.956c-.012.156-1.781.107-3.93.374s-3.857.723-3.906.575a12.608,12.608,0,0,1,7.836-.948Z" transform="translate(-160.412 -444.687)" fill="#232049"/>
      </g>
      <g id="Group_3062" data-name="Group 3062" transform="translate(51.437 123.347)">
        <path id="Path_3317" data-name="Path 3317" d="M169.3,442.8c.035.056-.353.4-1.092.788a9.285,9.285,0,0,1-6.358.742c-.81-.208-1.266-.454-1.244-.515a22.822,22.822,0,0,0,4.428.179A22.9,22.9,0,0,0,169.3,442.8Z" transform="translate(-160.6 -442.789)" fill="#232049"/>
      </g>
      <g id="Group_3063" data-name="Group 3063" transform="translate(24.126 114.489)">
        <path id="Path_3318" data-name="Path 3318" d="M144.507,441.6a6.946,6.946,0,0,1-3.978-5.334c.152-.048.632,1.393,1.736,2.854C143.351,440.6,144.6,441.472,144.507,441.6Z" transform="translate(-140.498 -436.269)" fill="#232049"/>
      </g>
      <g id="Group_3064" data-name="Group 3064" transform="translate(22.751 117.589)">
        <path id="Path_3319" data-name="Path 3319" d="M144.108,441.685c-.077.016-.186-.272-.571-.552s-1.013-.618-1.672-1.019a10.61,10.61,0,0,1-2.377-1.539,6.162,6.162,0,0,1,2.648,1.079,8.186,8.186,0,0,1,1.66,1.2C144.186,441.28,144.177,441.687,144.108,441.685Z" transform="translate(-139.485 -438.551)" fill="#232049"/>
      </g>
      <g id="Group_3065" data-name="Group 3065" transform="translate(36.952 89.628)">
        <path id="Path_3320" data-name="Path 3320" d="M163.614,424.154a4.464,4.464,0,0,1-2.206-.326,40.221,40.221,0,0,1-4.862-2.224c-1.857-.936-3.527-1.81-4.721-2.466a9.239,9.239,0,0,1-1.886-1.16,9.138,9.138,0,0,1,2.055.823c1.238.571,2.933,1.39,4.792,2.326s3.5,1.856,4.751,2.348S163.623,424.07,163.614,424.154Z" transform="translate(-149.938 -417.97)" fill="#232049"/>
      </g>
      <path id="Path_3321" data-name="Path 3321" d="M135.083,375.89l5.983,46.338,37.64.486-5.623-34.905s18.6,17.658,26.719,10.337,9.431-14.6,9.431-14.6l-4.419-3.038s-6.723,12.8-12.834,8.775c-6.869-4.524-22.229-23.014-36.714-20.718C145.67,370.086,136.564,364.719,135.083,375.89Z" transform="translate(-118.313 -346.126)" fill="#bfb0a7"/>
      <g id="Group_3066" data-name="Group 3066" transform="translate(4.903)">
        <path id="Path_3322" data-name="Path 3322" d="M154.1,353.675l3.468,8.95a3.857,3.857,0,0,1-2.22,5l-1.179.451.569,6.562-9.139.792L144,356.914Z" transform="translate(-120.02 -351.395)" fill="#f7d3a9"/>
        <path id="Path_3323" data-name="Path 3323" d="M148.957,371.173s3.5-3.046,3.2-5.767c0,0-5.164-2.149-3.762-3.648s4.387,1.149,4.387,1.149-2.06-3.955-1.6-5.066c0,0,6.691-.59,5.266-4.438,0,0-2.007-1.527-6.237-1.4s-5.934,7.439-5.934,7.439Z" transform="translate(-119.92 -351.996)" fill="#06205b"/>
        <path id="Path_3324" data-name="Path 3324" d="M157.3,352.454a12.78,12.78,0,0,0-16.023,13.431c.243,2.856,1.422,5.835.307,8.476a10.3,10.3,0,0,1-2.77,3.395c-3.178,2.9-6.465,5.758-8.93,9.287s-4.057,7.884-3.376,12.133a10.142,10.142,0,0,0,2.182,4.961c.622.734,1.369,1.363,1.916,2.152,1.956,2.824.857,6.77,2.056,9.988,1.537,4.131,6.378,5.978,10.764,6.422,6.017.61,12.5-.666,16.938-4.777s6.085-11.44,2.67-16.432c-1.69-2.47-4.565-4.642-4.284-7.622.175-1.85,1.572-3.32,2.376-5a8.424,8.424,0,0,0-2.42-10.029c-1.094-.833-2.392-1.384-3.4-2.314s-1.7-2.448-1.09-3.68c.467-.95,1.56-1.462,2.049-2.4.731-1.4-.156-3.1-1.187-4.3s-2.305-2.384-2.454-3.957a6.289,6.289,0,0,1,1.022-3.4q1.657-3.149,3.312-6.3" transform="translate(-126.348 -351.981)" fill="#06205b"/>
      </g>
    </g>
  </g>
</svg>