<svg xmlns="http://www.w3.org/2000/svg" xmlns:xlink="http://www.w3.org/1999/xlink" width="18" height="13.5" viewBox="0 0 18 13.5">
  <defs>
    <clipPath id="clip-mail">
      <rect width="18" height="13.5"/>
    </clipPath>
  </defs>
  <g id="mail" clip-path="url(#clip-mail)">
    <g id="Group_5" data-name="Group 5" transform="translate(-58.379 -26.026)">
      <path id="Path_5" data-name="Path 5" d="M67.379,35.026a1.656,1.656,0,0,1-.686-.193,5.882,5.882,0,0,1-.65-.352q-.246-.157-.721-.527a3.849,3.849,0,0,0-.509-.369q-4.29-3.129-6.118-4.535a.8.8,0,0,1-.316-.668v-.668a1.682,1.682,0,0,1,1.687-1.688H74.691a1.682,1.682,0,0,1,1.688,1.688v.668a.8.8,0,0,1-.316.668q-1.724,1.337-6.118,4.535a3.848,3.848,0,0,0-.509.369q-.475.369-.721.527a5.817,5.817,0,0,1-.651.352A1.652,1.652,0,0,1,67.379,35.026Zm8.648-4.535a.174.174,0,0,1,.229-.035.229.229,0,0,1,.123.211v7.172a1.68,1.68,0,0,1-1.688,1.687H60.066a1.68,1.68,0,0,1-1.687-1.687V30.667a.193.193,0,0,1,.123-.193.224.224,0,0,1,.228.017q1.161.879,5.415,3.973c.046.047.205.176.474.387s.486.369.651.474.375.235.632.387a3.212,3.212,0,0,0,.756.334,2.631,2.631,0,0,0,.721.1,2.34,2.34,0,0,0,.633-.088,4.367,4.367,0,0,0,.6-.21,3.964,3.964,0,0,0,.6-.334q.316-.212.527-.37l.493-.369a3.991,3.991,0,0,0,.386-.316Q74.762,31.476,76.027,30.491Z" fill="#74869d"/>
    </g>
  </g>
</svg>