<svg xmlns="http://www.w3.org/2000/svg" xmlns:xlink="http://www.w3.org/1999/xlink" width="70" height="70" viewBox="0 0 70 70">
  <defs>
    <clipPath id="clip-path">
      <circle id="Ellipse_57" data-name="Ellipse 57" cx="35" cy="35" r="35" transform="translate(531.023 8.823)" fill="none"/>
    </clipPath>
    <clipPath id="clip-testimonials_icon">
      <rect width="70" height="70"/>
    </clipPath>
  </defs>
  <g id="testimonials_icon" clip-path="url(#clip-testimonials_icon)">
    <g id="Group_908" data-name="Group 908" transform="translate(-531.023 -8.823)">
      <g id="Group_904" data-name="Group 904">
        <path id="Path_711" data-name="Path 711" d="M566.188,58.87c-.055,0-.11.056-.22.056-.055,0-.11-.056-.22-.056Z" fill="#e6e9ee"/>
      </g>
      <circle id="Ellipse_56" data-name="Ellipse 56" cx="35" cy="35" r="35" transform="translate(531.023 8.823)" fill="#90dfaa"/>
      <g id="Group_906" data-name="Group 906">
        <g id="Group_905" data-name="Group 905" clip-path="url(#clip-path)">
          <path id="Path_712" data-name="Path 712" d="M594.188,68.626a34.95,34.95,0,0,1-56.44,0c4.96-5.291,11.685-8.1,17.307-9.535-.5,4.024,1.6,9.425,1.653,9.26,2.095-4.851,9.205-5.292,9.205-5.292s7.11.386,9.26,5.292c.055.11,2.149-5.236,1.653-9.26C582.5,60.524,589.228,63.335,594.188,68.626Z" fill="#e6e9ee"/>
          <path id="Path_713" data-name="Path 713" d="M594.188,68.626a34.95,34.95,0,0,1-56.44,0c4.96-5.291,11.685-8.1,17.307-9.535-.5,4.024,1.6,9.425,1.653,9.26,2.095-4.851,9.205-5.292,9.205-5.292s7.11.386,9.26,5.292c.055.11,2.149-5.236,1.653-9.26C582.5,60.524,589.228,63.335,594.188,68.626Z" fill="#e6e9ee"/>
          <path id="Path_714" data-name="Path 714" d="M570.763,64.272,569,67.8h-6.063l-1.764-3.528a16.476,16.476,0,0,1,4.8-1.213A16.088,16.088,0,0,1,570.763,64.272Z" fill="#f1543f"/>
          <path id="Path_715" data-name="Path 715" d="M561.062,82.626a36.2,36.2,0,0,0,4.961.331,37.411,37.411,0,0,0,4.961-.331l-1.929-14.771h-6.063Z" fill="#ff7058"/>
        </g>
      </g>
      <path id="Path_716" data-name="Path 716" d="M574.677,55.4h0c0,.717-.441,4.52-8.489,7.606h-.44c-8.048-3.086-8.489-6.889-8.489-7.606h0a11.108,11.108,0,0,1,.992-4.189c2.205,2.48,4.851,4.134,7.717,4.134,2.811,0,5.512-1.6,7.717-4.134A10.158,10.158,0,0,1,574.677,55.4Z" fill="#ffe3a4"/>
      <g id="Group_907" data-name="Group 907">
        <path id="Path_717" data-name="Path 717" d="M574.677,55.288s.385,4.409-8.709,7.771c0,0,7.11.386,9.26,5.292C575.283,68.571,579.417,57.878,574.677,55.288Z" fill="#fff"/>
        <path id="Path_718" data-name="Path 718" d="M557.259,55.288c-4.685,2.59-.606,13.228-.5,13.063,2.095-4.851,9.26-5.292,9.26-5.292C556.874,59.7,557.259,55.288,557.259,55.288Z" fill="#fff"/>
      </g>
      <path id="Path_719" data-name="Path 719" d="M574.125,52.311c-2.314,2.481-5.07,4.079-8.157,4.079s-5.843-1.6-8.157-4.079a6.618,6.618,0,0,1,.44-1.1c2.205,2.48,4.851,4.134,7.717,4.134s5.512-1.6,7.717-4.134A6.612,6.612,0,0,1,574.125,52.311Z" fill="#ffd98d"/>
      <path id="Path_720" data-name="Path 720" d="M581.015,43.878c-1.157,1.929-2.921,3.087-4.244,2.866-2.646,4.906-6.5,8.544-10.8,8.544s-8.157-3.693-10.8-8.543c-1.323.165-3.087-.938-4.244-2.867-1.378-2.259-1.433-4.74-.11-5.567a1.725,1.725,0,0,1,1.047-.22,13.306,13.306,0,0,0,2.094,3.638c-1.267-7,3.914-7.772,3.032-14.5,0,0,3.252,7.22,12.567,2.149l-.717,1.378c13.008-2.921,8.654,12.4,8.543,12.788a17.355,17.355,0,0,0,2.977-5.457,1.351,1.351,0,0,1,.661.22C582.448,39.083,582.393,41.619,581.015,43.878Z" fill="#ffe3a4"/>
      <path id="Path_721" data-name="Path 721" d="M573.464,19.957a6.444,6.444,0,0,1,2.756.827c-4.685-5.347-12.346-1.929-12.346-1.929a7.185,7.185,0,0,1,4.9-1.985c-10.968-1.653-12.842,4.906-12.842,4.906a4.073,4.073,0,0,1-.441-2.425c-.772,1.323.055,3.968.055,3.968-.772-1.929-3.473-1.6-3.473-1.6,2.315.386,2.7,1.819,2.7,1.819-5.787,2.149-4.795,8.157-4.795,8.157l1.378-1.653c-1.709,6.559,2.645,11.63,2.645,11.63-1.267-7,3.914-7.772,3.032-14.5,0,0,3.252,7.22,12.567,2.149l-.717,1.378c13.173-2.976,8.544,12.843,8.544,12.843A17.787,17.787,0,0,0,581.4,31.477l.551,2.2C583.44,23.76,573.464,19.957,573.464,19.957Z" fill="#324a5e"/>
    </g>
  </g>
</svg>