<svg width="255" height="258" viewBox="0 0 255 258" fill="none" xmlns="http://www.w3.org/2000/svg">
<path opacity="0.5" d="M184.216 252.992L24.6514 210.376C10.9584 206.721 3.6373 191.475 9.09759 178.003L72.7795 20.9317C76.6815 11.3084 87.5232 6.83985 96.748 11.0513L229.62 71.7227C237.446 75.2963 241.676 84.0776 239.715 92.6785L206.34 239.21C204.031 249.367 194.013 255.605 184.216 252.992Z" fill="#E1F6FF"/>
<rect x="13" y="59" width="148" height="47" rx="11" fill="#339AD4"/>
<path d="M39.6211 79.0391C39.6211 80.5299 39.1328 81.6725 38.1562 82.4668C37.1797 83.2611 35.7897 83.6582 33.9863 83.6582H32.502V89H30.168V74.7227H34.2793C36.0632 74.7227 37.3978 75.0872 38.2832 75.8164C39.1751 76.5456 39.6211 77.6198 39.6211 79.0391ZM32.502 81.6953H33.7422C34.9401 81.6953 35.819 81.487 36.3789 81.0703C36.9388 80.6536 37.2188 80.0026 37.2188 79.1172C37.2188 78.2969 36.9681 77.6849 36.4668 77.2812C35.9655 76.8776 35.1842 76.6758 34.123 76.6758H32.502V81.6953ZM48.9863 89L48.5273 87.4961H48.4492C47.9284 88.1536 47.4043 88.6029 46.877 88.8438C46.3496 89.0781 45.6725 89.1953 44.8457 89.1953C43.7845 89.1953 42.9544 88.9089 42.3555 88.3359C41.763 87.763 41.4668 86.9525 41.4668 85.9043C41.4668 84.791 41.8802 83.9512 42.707 83.3848C43.5339 82.8184 44.7936 82.5091 46.4863 82.457L48.3516 82.3984V81.8223C48.3516 81.1322 48.1888 80.6178 47.8633 80.2793C47.5443 79.9342 47.0462 79.7617 46.3691 79.7617C45.8158 79.7617 45.2852 79.8431 44.7773 80.0059C44.2695 80.1686 43.7812 80.3607 43.3125 80.582L42.5703 78.9414C43.1562 78.6354 43.7975 78.4043 44.4941 78.248C45.1908 78.0853 45.8483 78.0039 46.4668 78.0039C47.8405 78.0039 48.8757 78.3034 49.5723 78.9023C50.2754 79.5013 50.627 80.4421 50.627 81.7246V89H48.9863ZM45.5684 87.4375C46.4017 87.4375 47.069 87.2064 47.5703 86.7441C48.0781 86.2754 48.332 85.6211 48.332 84.7812V83.8438L46.9453 83.9023C45.8646 83.9414 45.0768 84.1237 44.582 84.4492C44.0938 84.7682 43.8496 85.2598 43.8496 85.9238C43.8496 86.4056 43.9928 86.7799 44.2793 87.0469C44.5658 87.3073 44.9954 87.4375 45.5684 87.4375ZM59.3086 78.0039C59.7708 78.0039 60.1517 78.0365 60.4512 78.1016L60.2266 80.2402C59.901 80.1621 59.5625 80.123 59.2109 80.123C58.293 80.123 57.5475 80.4225 56.9746 81.0215C56.4082 81.6204 56.125 82.3984 56.125 83.3555V89H53.8301V78.1992H55.627L55.9297 80.1035H56.0469C56.4049 79.459 56.8704 78.9479 57.4434 78.5703C58.0228 78.1927 58.6445 78.0039 59.3086 78.0039ZM69.2207 89L68.7617 87.4961H68.6836C68.1628 88.1536 67.6387 88.6029 67.1113 88.8438C66.584 89.0781 65.9069 89.1953 65.0801 89.1953C64.0189 89.1953 63.1888 88.9089 62.5898 88.3359C61.9974 87.763 61.7012 86.9525 61.7012 85.9043C61.7012 84.791 62.1146 83.9512 62.9414 83.3848C63.7682 82.8184 65.028 82.5091 66.7207 82.457L68.5859 82.3984V81.8223C68.5859 81.1322 68.4232 80.6178 68.0977 80.2793C67.7786 79.9342 67.2806 79.7617 66.6035 79.7617C66.0501 79.7617 65.5195 79.8431 65.0117 80.0059C64.5039 80.1686 64.0156 80.3607 63.5469 80.582L62.8047 78.9414C63.3906 78.6354 64.0319 78.4043 64.7285 78.248C65.4251 78.0853 66.0827 78.0039 66.7012 78.0039C68.0749 78.0039 69.11 78.3034 69.8066 78.9023C70.5098 79.5013 70.8613 80.4421 70.8613 81.7246V89H69.2207ZM65.8027 87.4375C66.6361 87.4375 67.3034 87.2064 67.8047 86.7441C68.3125 86.2754 68.5664 85.6211 68.5664 84.7812V83.8438L67.1797 83.9023C66.099 83.9414 65.3112 84.1237 64.8164 84.4492C64.3281 84.7682 64.084 85.2598 64.084 85.9238C64.084 86.4056 64.2272 86.7799 64.5137 87.0469C64.8001 87.3073 65.2298 87.4375 65.8027 87.4375ZM79.543 89.1953C78.1758 89.1953 77.1146 88.7038 76.3594 87.7207H76.2227C76.3138 88.6322 76.3594 89.1855 76.3594 89.3809V93.8047H74.0645V78.1992H75.9199C75.972 78.401 76.0794 78.8828 76.2422 79.6445H76.3594C77.0755 78.5508 78.1497 78.0039 79.582 78.0039C80.9297 78.0039 81.9779 78.4922 82.7266 79.4688C83.4818 80.4453 83.8594 81.8158 83.8594 83.5801C83.8594 85.3444 83.4753 86.7214 82.707 87.7109C81.9453 88.7005 80.8906 89.1953 79.543 89.1953ZM78.9863 79.8789C78.0749 79.8789 77.4076 80.1458 76.9844 80.6797C76.5677 81.2135 76.3594 82.0664 76.3594 83.2383V83.5801C76.3594 84.8952 76.5677 85.849 76.9844 86.4414C77.401 87.0273 78.0814 87.3203 79.0254 87.3203C79.8197 87.3203 80.4316 86.9948 80.8613 86.3438C81.291 85.6927 81.5059 84.765 81.5059 83.5605C81.5059 82.3496 81.291 81.4349 80.8613 80.8164C80.4382 80.1914 79.8132 79.8789 78.9863 79.8789ZM96.0273 89H93.7227V82.3594C93.7227 81.526 93.5534 80.9043 93.2148 80.4941C92.8828 80.084 92.3522 79.8789 91.623 79.8789C90.6595 79.8789 89.9499 80.1686 89.4941 80.748C89.0449 81.321 88.8203 82.2845 88.8203 83.6387V89H86.5254V73.8047H88.8203V77.6621C88.8203 78.2806 88.7812 78.9414 88.7031 79.6445H88.8496C89.1621 79.1237 89.5951 78.7201 90.1484 78.4336C90.7083 78.1471 91.3594 78.0039 92.1016 78.0039C94.7188 78.0039 96.0273 79.3223 96.0273 81.959V89ZM104.699 78.0039C105.161 78.0039 105.542 78.0365 105.842 78.1016L105.617 80.2402C105.292 80.1621 104.953 80.123 104.602 80.123C103.684 80.123 102.938 80.4225 102.365 81.0215C101.799 81.6204 101.516 82.3984 101.516 83.3555V89H99.2207V78.1992H101.018L101.32 80.1035H101.438C101.796 79.459 102.261 78.9479 102.834 78.5703C103.413 78.1927 104.035 78.0039 104.699 78.0039ZM114.611 89L114.152 87.4961H114.074C113.553 88.1536 113.029 88.6029 112.502 88.8438C111.975 89.0781 111.298 89.1953 110.471 89.1953C109.41 89.1953 108.579 88.9089 107.98 88.3359C107.388 87.763 107.092 86.9525 107.092 85.9043C107.092 84.791 107.505 83.9512 108.332 83.3848C109.159 82.8184 110.419 82.5091 112.111 82.457L113.977 82.3984V81.8223C113.977 81.1322 113.814 80.6178 113.488 80.2793C113.169 79.9342 112.671 79.7617 111.994 79.7617C111.441 79.7617 110.91 79.8431 110.402 80.0059C109.895 80.1686 109.406 80.3607 108.938 80.582L108.195 78.9414C108.781 78.6354 109.423 78.4043 110.119 78.248C110.816 78.0853 111.473 78.0039 112.092 78.0039C113.465 78.0039 114.501 78.3034 115.197 78.9023C115.9 79.5013 116.252 80.4421 116.252 81.7246V89H114.611ZM111.193 87.4375C112.027 87.4375 112.694 87.2064 113.195 86.7441C113.703 86.2754 113.957 85.6211 113.957 84.7812V83.8438L112.57 83.9023C111.49 83.9414 110.702 84.1237 110.207 84.4492C109.719 84.7682 109.475 85.2598 109.475 85.9238C109.475 86.4056 109.618 86.7799 109.904 87.0469C110.191 87.3073 110.62 87.4375 111.193 87.4375ZM126.711 85.9238C126.711 86.9785 126.327 87.7891 125.559 88.3555C124.79 88.9154 123.69 89.1953 122.258 89.1953C120.819 89.1953 119.663 88.9772 118.791 88.541V86.5586C120.061 87.1445 121.242 87.4375 122.336 87.4375C123.749 87.4375 124.455 87.0111 124.455 86.1582C124.455 85.8848 124.377 85.6569 124.221 85.4746C124.064 85.2923 123.807 85.1035 123.449 84.9082C123.091 84.7129 122.593 84.4915 121.955 84.2441C120.712 83.7624 119.868 83.2806 119.426 82.7988C118.99 82.3171 118.771 81.6921 118.771 80.9238C118.771 79.9993 119.143 79.2832 119.885 78.7754C120.633 78.2611 121.649 78.0039 122.932 78.0039C124.201 78.0039 125.402 78.2611 126.535 78.7754L125.793 80.5039C124.628 80.0221 123.648 79.7812 122.854 79.7812C121.643 79.7812 121.037 80.1263 121.037 80.8164C121.037 81.1549 121.193 81.4414 121.506 81.6758C121.825 81.9102 122.515 82.2324 123.576 82.6426C124.468 82.9876 125.116 83.3034 125.52 83.5898C125.923 83.8763 126.223 84.2083 126.418 84.5859C126.613 84.957 126.711 85.403 126.711 85.9238ZM133.918 89.1953C132.238 89.1953 130.923 88.707 129.973 87.7305C129.029 86.7474 128.557 85.3965 128.557 83.6777C128.557 81.9134 128.996 80.5267 129.875 79.5176C130.754 78.5085 131.962 78.0039 133.498 78.0039C134.924 78.0039 136.05 78.4368 136.877 79.3027C137.704 80.1686 138.117 81.36 138.117 82.877V84.1172H130.92C130.952 85.1654 131.236 85.9727 131.77 86.5391C132.303 87.099 133.055 87.3789 134.025 87.3789C134.663 87.3789 135.256 87.3203 135.803 87.2031C136.356 87.0794 136.949 86.8776 137.58 86.5977V88.4629C137.02 88.7298 136.454 88.9186 135.881 89.0293C135.308 89.14 134.654 89.1953 133.918 89.1953ZM133.498 79.7422C132.769 79.7422 132.183 79.9733 131.74 80.4355C131.304 80.8978 131.044 81.5716 130.959 82.457H135.861C135.848 81.5651 135.633 80.8913 135.217 80.4355C134.8 79.9733 134.227 79.7422 133.498 79.7422ZM146.203 78.0039C146.665 78.0039 147.046 78.0365 147.346 78.1016L147.121 80.2402C146.796 80.1621 146.457 80.123 146.105 80.123C145.188 80.123 144.442 80.4225 143.869 81.0215C143.303 81.6204 143.02 82.3984 143.02 83.3555V89H140.725V78.1992H142.521L142.824 80.1035H142.941C143.299 79.459 143.765 78.9479 144.338 78.5703C144.917 78.1927 145.539 78.0039 146.203 78.0039Z" fill="white"/>
<rect x="98" y="118" width="157" height="47" rx="11" fill="#7BAF53"/>
<path d="M128.377 144.123C128.377 145.393 127.918 146.389 127 147.111C126.082 147.834 124.816 148.195 123.201 148.195C121.587 148.195 120.265 147.945 119.236 147.443V145.236C119.887 145.542 120.577 145.783 121.307 145.959C122.042 146.135 122.726 146.223 123.357 146.223C124.282 146.223 124.962 146.047 125.398 145.695C125.841 145.344 126.062 144.872 126.062 144.279C126.062 143.745 125.861 143.293 125.457 142.922C125.053 142.551 124.22 142.111 122.957 141.604C121.655 141.076 120.737 140.474 120.203 139.797C119.669 139.12 119.402 138.306 119.402 137.355C119.402 136.164 119.826 135.227 120.672 134.543C121.518 133.859 122.654 133.518 124.08 133.518C125.447 133.518 126.808 133.817 128.162 134.416L127.42 136.32C126.15 135.786 125.018 135.52 124.021 135.52C123.266 135.52 122.693 135.686 122.303 136.018C121.912 136.343 121.717 136.776 121.717 137.316C121.717 137.688 121.795 138.007 121.951 138.273C122.107 138.534 122.365 138.781 122.723 139.016C123.081 139.25 123.725 139.559 124.656 139.943C125.704 140.38 126.473 140.786 126.961 141.164C127.449 141.542 127.807 141.968 128.035 142.443C128.263 142.919 128.377 143.479 128.377 144.123ZM138.514 148L138.191 146.584H138.074C137.755 147.085 137.299 147.479 136.707 147.766C136.121 148.052 135.451 148.195 134.695 148.195C133.387 148.195 132.41 147.87 131.766 147.219C131.121 146.568 130.799 145.581 130.799 144.26V137.199H133.113V143.859C133.113 144.686 133.283 145.308 133.621 145.725C133.96 146.135 134.49 146.34 135.213 146.34C136.176 146.34 136.883 146.053 137.332 145.48C137.788 144.901 138.016 143.934 138.016 142.58V137.199H140.32V148H138.514ZM152.693 148H150.389V141.34C150.389 140.513 150.232 139.898 149.92 139.494C149.607 139.084 149.119 138.879 148.455 138.879C147.57 138.879 146.919 139.169 146.502 139.748C146.092 140.321 145.887 141.278 145.887 142.619V148H143.592V137.199H145.389L145.711 138.615H145.828C146.128 138.101 146.561 137.704 147.127 137.424C147.7 137.144 148.328 137.004 149.012 137.004C150.672 137.004 151.772 137.57 152.312 138.703H152.469C152.788 138.169 153.237 137.753 153.816 137.453C154.396 137.154 155.06 137.004 155.809 137.004C157.098 137.004 158.035 137.329 158.621 137.98C159.214 138.632 159.51 139.624 159.51 140.959V148H157.215V141.34C157.215 140.513 157.055 139.898 156.736 139.494C156.424 139.084 155.936 138.879 155.271 138.879C154.38 138.879 153.725 139.159 153.309 139.719C152.898 140.272 152.693 141.125 152.693 142.277V148ZM171.814 148H169.51V141.34C169.51 140.513 169.354 139.898 169.041 139.494C168.729 139.084 168.24 138.879 167.576 138.879C166.691 138.879 166.04 139.169 165.623 139.748C165.213 140.321 165.008 141.278 165.008 142.619V148H162.713V137.199H164.51L164.832 138.615H164.949C165.249 138.101 165.682 137.704 166.248 137.424C166.821 137.144 167.449 137.004 168.133 137.004C169.793 137.004 170.893 137.57 171.434 138.703H171.59C171.909 138.169 172.358 137.753 172.938 137.453C173.517 137.154 174.181 137.004 174.93 137.004C176.219 137.004 177.156 137.329 177.742 137.98C178.335 138.632 178.631 139.624 178.631 140.959V148H176.336V141.34C176.336 140.513 176.176 139.898 175.857 139.494C175.545 139.084 175.057 138.879 174.393 138.879C173.501 138.879 172.846 139.159 172.43 139.719C172.02 140.272 171.814 141.125 171.814 142.277V148ZM188.592 148L188.133 146.496H188.055C187.534 147.154 187.01 147.603 186.482 147.844C185.955 148.078 185.278 148.195 184.451 148.195C183.39 148.195 182.56 147.909 181.961 147.336C181.368 146.763 181.072 145.952 181.072 144.904C181.072 143.791 181.486 142.951 182.312 142.385C183.139 141.818 184.399 141.509 186.092 141.457L187.957 141.398V140.822C187.957 140.132 187.794 139.618 187.469 139.279C187.15 138.934 186.652 138.762 185.975 138.762C185.421 138.762 184.891 138.843 184.383 139.006C183.875 139.169 183.387 139.361 182.918 139.582L182.176 137.941C182.762 137.635 183.403 137.404 184.1 137.248C184.796 137.085 185.454 137.004 186.072 137.004C187.446 137.004 188.481 137.303 189.178 137.902C189.881 138.501 190.232 139.442 190.232 140.725V148H188.592ZM185.174 146.438C186.007 146.438 186.674 146.206 187.176 145.744C187.684 145.275 187.938 144.621 187.938 143.781V142.844L186.551 142.902C185.47 142.941 184.682 143.124 184.188 143.449C183.699 143.768 183.455 144.26 183.455 144.924C183.455 145.406 183.598 145.78 183.885 146.047C184.171 146.307 184.601 146.438 185.174 146.438ZM198.914 137.004C199.376 137.004 199.757 137.036 200.057 137.102L199.832 139.24C199.507 139.162 199.168 139.123 198.816 139.123C197.898 139.123 197.153 139.423 196.58 140.021C196.014 140.62 195.73 141.398 195.73 142.355V148H193.436V137.199H195.232L195.535 139.104H195.652C196.01 138.459 196.476 137.948 197.049 137.57C197.628 137.193 198.25 137.004 198.914 137.004ZM204.363 148H202.068V137.199H204.363V148ZM201.932 134.338C201.932 133.928 202.042 133.612 202.264 133.391C202.492 133.169 202.814 133.059 203.23 133.059C203.634 133.059 203.947 133.169 204.168 133.391C204.396 133.612 204.51 133.928 204.51 134.338C204.51 134.729 204.396 135.038 204.168 135.266C203.947 135.487 203.634 135.598 203.23 135.598C202.814 135.598 202.492 135.487 202.264 135.266C202.042 135.038 201.932 134.729 201.932 134.338ZM214.871 148H206.678V146.584L212.137 138.957H207.01V137.199H214.715V138.801L209.373 146.242H214.871V148ZM221.941 148.195C220.262 148.195 218.947 147.707 217.996 146.73C217.052 145.747 216.58 144.396 216.58 142.678C216.58 140.913 217.02 139.527 217.898 138.518C218.777 137.508 219.985 137.004 221.521 137.004C222.947 137.004 224.074 137.437 224.9 138.303C225.727 139.169 226.141 140.36 226.141 141.877V143.117H218.943C218.976 144.165 219.259 144.973 219.793 145.539C220.327 146.099 221.079 146.379 222.049 146.379C222.687 146.379 223.279 146.32 223.826 146.203C224.38 146.079 224.972 145.878 225.604 145.598V147.463C225.044 147.73 224.477 147.919 223.904 148.029C223.331 148.14 222.677 148.195 221.941 148.195ZM221.521 138.742C220.792 138.742 220.206 138.973 219.764 139.436C219.327 139.898 219.067 140.572 218.982 141.457H223.885C223.872 140.565 223.657 139.891 223.24 139.436C222.824 138.973 222.251 138.742 221.521 138.742ZM234.227 137.004C234.689 137.004 235.07 137.036 235.369 137.102L235.145 139.24C234.819 139.162 234.48 139.123 234.129 139.123C233.211 139.123 232.465 139.423 231.893 140.021C231.326 140.62 231.043 141.398 231.043 142.355V148H228.748V137.199H230.545L230.848 139.104H230.965C231.323 138.459 231.788 137.948 232.361 137.57C232.941 137.193 233.562 137.004 234.227 137.004Z" fill="white"/>
<rect y="176" width="148" height="63" rx="11" fill="#BE6AE6"/>
<path d="M36.1035 196.256H41.3574V203.424C40.498 203.704 39.6712 203.902 38.877 204.02C38.0892 204.137 37.2363 204.195 36.3184 204.195C34.1569 204.195 32.4902 203.557 31.3184 202.281C30.1465 200.999 29.5605 199.192 29.5605 196.861C29.5605 194.563 30.2214 192.766 31.543 191.471C32.8646 190.169 34.6842 189.518 37.002 189.518C38.4928 189.518 39.9056 189.804 41.2402 190.377L40.4199 192.32C39.2611 191.786 38.1022 191.52 36.9434 191.52C35.4199 191.52 34.2155 191.998 33.3301 192.955C32.4447 193.912 32.002 195.221 32.002 196.881C32.002 198.626 32.3991 199.954 33.1934 200.865C33.9941 201.77 35.1432 202.223 36.6406 202.223C37.3958 202.223 38.2031 202.128 39.0625 201.939V198.258H36.1035V196.256ZM50.0293 193.004C50.4915 193.004 50.8724 193.036 51.1719 193.102L50.9473 195.24C50.6217 195.162 50.2832 195.123 49.9316 195.123C49.0137 195.123 48.2682 195.423 47.6953 196.021C47.1289 196.62 46.8457 197.398 46.8457 198.355V204H44.5508V193.199H46.3477L46.6504 195.104H46.7676C47.1257 194.459 47.5911 193.948 48.1641 193.57C48.7435 193.193 49.3652 193.004 50.0293 193.004ZM59.9414 204L59.4824 202.496H59.4043C58.8835 203.154 58.3594 203.603 57.832 203.844C57.3047 204.078 56.6276 204.195 55.8008 204.195C54.7396 204.195 53.9095 203.909 53.3105 203.336C52.7181 202.763 52.4219 201.952 52.4219 200.904C52.4219 199.791 52.8353 198.951 53.6621 198.385C54.4889 197.818 55.7487 197.509 57.4414 197.457L59.3066 197.398V196.822C59.3066 196.132 59.1439 195.618 58.8184 195.279C58.4993 194.934 58.0013 194.762 57.3242 194.762C56.7708 194.762 56.2402 194.843 55.7324 195.006C55.2246 195.169 54.7363 195.361 54.2676 195.582L53.5254 193.941C54.1113 193.635 54.7526 193.404 55.4492 193.248C56.1458 193.085 56.8034 193.004 57.4219 193.004C58.7956 193.004 59.8307 193.303 60.5273 193.902C61.2305 194.501 61.582 195.442 61.582 196.725V204H59.9414ZM56.5234 202.438C57.3568 202.438 58.0241 202.206 58.5254 201.744C59.0332 201.275 59.2871 200.621 59.2871 199.781V198.844L57.9004 198.902C56.8197 198.941 56.0319 199.124 55.5371 199.449C55.0488 199.768 54.8047 200.26 54.8047 200.924C54.8047 201.406 54.9479 201.78 55.2344 202.047C55.5208 202.307 55.9505 202.438 56.5234 202.438ZM73.8867 204H71.582V197.34C71.582 196.513 71.4258 195.898 71.1133 195.494C70.8008 195.084 70.3125 194.879 69.6484 194.879C68.763 194.879 68.112 195.169 67.6953 195.748C67.2852 196.321 67.0801 197.278 67.0801 198.619V204H64.7852V193.199H66.582L66.9043 194.615H67.0215C67.321 194.101 67.7539 193.704 68.3203 193.424C68.8932 193.144 69.5215 193.004 70.2051 193.004C71.8652 193.004 72.9655 193.57 73.5059 194.703H73.6621C73.9811 194.169 74.4303 193.753 75.0098 193.453C75.5892 193.154 76.2533 193.004 77.002 193.004C78.291 193.004 79.2285 193.329 79.8145 193.98C80.4069 194.632 80.7031 195.624 80.7031 196.959V204H78.4082V197.34C78.4082 196.513 78.2487 195.898 77.9297 195.494C77.6172 195.084 77.1289 194.879 76.4648 194.879C75.5729 194.879 74.9186 195.159 74.502 195.719C74.0918 196.272 73.8867 197.125 73.8867 198.277V204ZM93.0078 204H90.7031V197.34C90.7031 196.513 90.5469 195.898 90.2344 195.494C89.9219 195.084 89.4336 194.879 88.7695 194.879C87.8841 194.879 87.2331 195.169 86.8164 195.748C86.4062 196.321 86.2012 197.278 86.2012 198.619V204H83.9062V193.199H85.7031L86.0254 194.615H86.1426C86.4421 194.101 86.875 193.704 87.4414 193.424C88.0143 193.144 88.6426 193.004 89.3262 193.004C90.9863 193.004 92.0866 193.57 92.627 194.703H92.7832C93.1022 194.169 93.5514 193.753 94.1309 193.453C94.7103 193.154 95.3743 193.004 96.123 193.004C97.4121 193.004 98.3496 193.329 98.9355 193.98C99.528 194.632 99.8242 195.624 99.8242 196.959V204H97.5293V197.34C97.5293 196.513 97.3698 195.898 97.0508 195.494C96.7383 195.084 96.25 194.879 95.5859 194.879C94.694 194.879 94.0397 195.159 93.623 195.719C93.2129 196.272 93.0078 197.125 93.0078 198.277V204ZM109.785 204L109.326 202.496H109.248C108.727 203.154 108.203 203.603 107.676 203.844C107.148 204.078 106.471 204.195 105.645 204.195C104.583 204.195 103.753 203.909 103.154 203.336C102.562 202.763 102.266 201.952 102.266 200.904C102.266 199.791 102.679 198.951 103.506 198.385C104.333 197.818 105.592 197.509 107.285 197.457L109.15 197.398V196.822C109.15 196.132 108.988 195.618 108.662 195.279C108.343 194.934 107.845 194.762 107.168 194.762C106.615 194.762 106.084 194.843 105.576 195.006C105.068 195.169 104.58 195.361 104.111 195.582L103.369 193.941C103.955 193.635 104.596 193.404 105.293 193.248C105.99 193.085 106.647 193.004 107.266 193.004C108.639 193.004 109.674 193.303 110.371 193.902C111.074 194.501 111.426 195.442 111.426 196.725V204H109.785ZM106.367 202.438C107.201 202.438 107.868 202.206 108.369 201.744C108.877 201.275 109.131 200.621 109.131 199.781V198.844L107.744 198.902C106.663 198.941 105.876 199.124 105.381 199.449C104.893 199.768 104.648 200.26 104.648 200.924C104.648 201.406 104.792 201.78 105.078 202.047C105.365 202.307 105.794 202.438 106.367 202.438ZM120.107 193.004C120.57 193.004 120.951 193.036 121.25 193.102L121.025 195.24C120.7 195.162 120.361 195.123 120.01 195.123C119.092 195.123 118.346 195.423 117.773 196.021C117.207 196.62 116.924 197.398 116.924 198.355V204H114.629V193.199H116.426L116.729 195.104H116.846C117.204 194.459 117.669 193.948 118.242 193.57C118.822 193.193 119.443 193.004 120.107 193.004ZM43.7598 213.52C42.4186 213.52 41.3639 213.995 40.5957 214.945C39.8275 215.896 39.4434 217.208 39.4434 218.881C39.4434 220.632 39.8112 221.957 40.5469 222.855C41.2891 223.754 42.36 224.203 43.7598 224.203C44.3652 224.203 44.9512 224.145 45.5176 224.027C46.084 223.904 46.6732 223.747 47.2852 223.559V225.561C46.1654 225.984 44.8958 226.195 43.4766 226.195C41.3867 226.195 39.7819 225.564 38.6621 224.301C37.5423 223.031 36.9824 221.218 36.9824 218.861C36.9824 217.377 37.2526 216.078 37.793 214.965C38.3398 213.852 39.1276 212.999 40.1562 212.406C41.1849 211.814 42.3926 211.518 43.7793 211.518C45.2376 211.518 46.5853 211.824 47.8223 212.436L46.9824 214.379C46.5007 214.151 45.9896 213.952 45.4492 213.783C44.9154 213.607 44.3522 213.52 43.7598 213.52ZM59.6191 226H57.3145V219.359C57.3145 218.526 57.1452 217.904 56.8066 217.494C56.4746 217.084 55.944 216.879 55.2148 216.879C54.2513 216.879 53.5417 217.169 53.0859 217.748C52.6367 218.321 52.4121 219.285 52.4121 220.639V226H50.1172V210.805H52.4121V214.662C52.4121 215.281 52.373 215.941 52.2949 216.645H52.4414C52.7539 216.124 53.1868 215.72 53.7402 215.434C54.3001 215.147 54.9512 215.004 55.6934 215.004C58.3105 215.004 59.6191 216.322 59.6191 218.959V226ZM67.5293 226.195C65.8496 226.195 64.5345 225.707 63.584 224.73C62.64 223.747 62.168 222.396 62.168 220.678C62.168 218.913 62.6074 217.527 63.4863 216.518C64.3652 215.508 65.5729 215.004 67.1094 215.004C68.5352 215.004 69.6615 215.437 70.4883 216.303C71.3151 217.169 71.7285 218.36 71.7285 219.877V221.117H64.5312C64.5638 222.165 64.847 222.973 65.3809 223.539C65.9147 224.099 66.6667 224.379 67.6367 224.379C68.2747 224.379 68.8672 224.32 69.4141 224.203C69.9674 224.079 70.5599 223.878 71.1914 223.598V225.463C70.6315 225.73 70.0651 225.919 69.4922 226.029C68.9193 226.14 68.265 226.195 67.5293 226.195ZM67.1094 216.742C66.3802 216.742 65.7943 216.973 65.3516 217.436C64.9154 217.898 64.6549 218.572 64.5703 219.457H69.4727C69.4596 218.565 69.2448 217.891 68.8281 217.436C68.4115 216.973 67.8385 216.742 67.1094 216.742ZM78.6914 226.195C77.0573 226.195 75.8138 225.72 74.9609 224.77C74.1146 223.812 73.6914 222.442 73.6914 220.658C73.6914 218.842 74.1341 217.445 75.0195 216.469C75.9115 215.492 77.1973 215.004 78.877 215.004C80.0163 215.004 81.0417 215.215 81.9531 215.639L81.2598 217.484C80.2897 217.107 79.4889 216.918 78.8574 216.918C76.9889 216.918 76.0547 218.158 76.0547 220.639C76.0547 221.85 76.2858 222.761 76.748 223.373C77.2168 223.979 77.9004 224.281 78.7988 224.281C79.821 224.281 80.7878 224.027 81.6992 223.52V225.521C81.2891 225.762 80.8496 225.935 80.3809 226.039C79.9186 226.143 79.3555 226.195 78.6914 226.195ZM86.4551 220.297L87.7539 218.676L91.0156 215.199H93.6621L89.3164 219.838L93.9355 226H91.2402L87.7734 221.264L86.5137 222.299V226H84.2383V210.805H86.5137V218.217L86.3965 220.297H86.4551ZM100.4 226.195C98.7207 226.195 97.4056 225.707 96.4551 224.73C95.5111 223.747 95.0391 222.396 95.0391 220.678C95.0391 218.913 95.4785 217.527 96.3574 216.518C97.2363 215.508 98.444 215.004 99.9805 215.004C101.406 215.004 102.533 215.437 103.359 216.303C104.186 217.169 104.6 218.36 104.6 219.877V221.117H97.4023C97.4349 222.165 97.7181 222.973 98.252 223.539C98.7858 224.099 99.5378 224.379 100.508 224.379C101.146 224.379 101.738 224.32 102.285 224.203C102.839 224.079 103.431 223.878 104.062 223.598V225.463C103.503 225.73 102.936 225.919 102.363 226.029C101.79 226.14 101.136 226.195 100.4 226.195ZM99.9805 216.742C99.2513 216.742 98.6654 216.973 98.2227 217.436C97.7865 217.898 97.526 218.572 97.4414 219.457H102.344C102.331 218.565 102.116 217.891 101.699 217.436C101.283 216.973 100.71 216.742 99.9805 216.742ZM112.686 215.004C113.148 215.004 113.529 215.036 113.828 215.102L113.604 217.24C113.278 217.162 112.939 217.123 112.588 217.123C111.67 217.123 110.924 217.423 110.352 218.021C109.785 218.62 109.502 219.398 109.502 220.355V226H107.207V215.199H109.004L109.307 217.104H109.424C109.782 216.459 110.247 215.948 110.82 215.57C111.4 215.193 112.021 215.004 112.686 215.004Z" fill="white"/>
</svg>